<svg width="42" height="46" viewBox="0 0 42 46" fill="none" xmlns="http://www.w3.org/2000/svg">
<path d="M16.5078 7.45703C17.0037 7.45703 17.4062 7.85953 17.4062 8.35547C17.4062 8.85141 17.0037 9.25391 16.5078 9.25391C16.0119 9.25391 15.6094 8.85141 15.6094 8.35547C15.6094 7.85953 16.0119 7.45703 16.5078 7.45703Z" fill="#5E20B3"/>
<path d="M25.4922 7.45703C25.9881 7.45703 26.3906 7.85953 26.3906 8.35547C26.3906 8.85141 25.9881 9.25391 25.4922 9.25391C24.9963 9.25391 24.5938 8.85141 24.5938 8.35547C24.5938 7.85953 24.9963 7.45703 25.4922 7.45703Z" fill="#5E20B3"/>
<path d="M1.49286 26.8527C0.721729 25.6953 0.335938 24.2513 0.335938 23C0.335938 21.1136 1.17391 19.3611 2.61186 18.1726C2.29363 17.4122 2.13281 16.6213 2.13281 15.8125C2.13281 13.3099 3.59331 10.9786 5.76474 9.89C5.43529 7.15749 7.21581 4.65283 9.85443 4.01395C10.8872 1.62653 13.1858 0 15.6094 0C17.8654 0 19.8887 1.31585 21 3.23581C22.1114 1.31585 24.1347 0 26.3906 0C28.8143 0 31.113 1.62653 32.1456 4.01404C34.8 4.65696 36.5638 7.17411 36.2353 9.89C38.4066 10.9785 39.8672 13.3099 39.8672 15.8125C39.8672 16.6213 39.7064 17.4122 39.3881 18.1726C40.8261 19.3611 41.6641 21.1136 41.6641 23C41.6641 24.2578 41.275 25.7 40.5071 26.8526C41.2575 27.9118 41.6641 29.1672 41.6641 30.457C41.6641 32.1296 40.9859 33.7229 39.7864 34.9059C40.4031 38.6337 37.4302 42.4062 33.5781 42.4062C33.5503 42.4062 33.5229 42.4058 33.496 42.405C32.2189 44.6081 29.8483 46 27.2891 46C24.6218 46 22.2384 44.399 21 42.0923C19.7616 44.399 17.3782 46 14.7109 46C12.1517 46 9.78112 44.6081 8.50399 42.405C8.47704 42.4058 8.44973 42.4062 8.42188 42.4062C5.01284 42.4062 2.13281 39.4028 2.13281 35.8477C2.13281 35.545 2.1594 35.2337 2.21358 34.9059C1.01408 33.7229 0.335938 32.1297 0.335938 30.457C0.335938 29.1672 0.742481 27.9118 1.49286 26.8527ZM21.8984 13.6006C22.4274 13.2938 23.041 13.1172 23.6953 13.1172C24.1915 13.1172 24.5938 13.5194 24.5938 14.0156C24.5938 14.5118 24.1915 14.9141 23.6953 14.9141C22.7045 14.9141 21.8984 15.7201 21.8984 16.7109V33.7964C23.2165 32.3013 25.1439 31.3555 27.2891 31.3555C27.7853 31.3555 28.1875 31.7577 28.1875 32.2539C28.1875 32.7501 27.7853 33.1523 27.2891 33.1523C24.3167 33.1523 21.8984 35.5706 21.8984 38.543C21.8984 41.611 24.3671 44.2031 27.2891 44.2031C29.3691 44.2031 31.284 42.9731 32.1675 41.0694C32.3304 40.7185 32.6993 40.5116 33.0839 40.5549C33.1474 40.5622 33.2106 40.5707 33.2737 40.5793C35.8307 40.929 38.7102 38.0336 37.9307 34.7945C37.8506 34.4618 37.9665 34.1127 38.2295 33.8938C39.2703 33.0278 39.8672 31.7751 39.8672 30.457C39.8672 29.6421 39.6367 28.8445 39.2079 28.1452C38.1303 29.0283 36.7899 29.5586 35.375 29.5586C34.8788 29.5586 34.4766 29.1564 34.4766 28.6602C34.4766 28.1639 34.8788 27.7617 35.375 27.7617C37.8133 27.7617 39.8672 25.5363 39.8672 23C39.8672 21.4614 39.0829 20.046 37.7692 19.2138C37.3644 18.9574 37.2321 18.4285 37.4684 18.0117C37.8678 17.3074 38.0703 16.5675 38.0703 15.8125C38.0703 13.3876 36.0936 11.0508 33.5781 11.0508C31.185 11.0508 29.0859 13.2759 29.0859 15.8125C29.0859 16.3087 28.6837 16.7109 28.1875 16.7109C27.6913 16.7109 27.2891 16.3087 27.2891 15.8125C27.2891 12.2574 30.1691 9.25391 33.5781 9.25391C33.8789 9.25391 34.1781 9.27825 34.4743 9.32434C34.4748 9.30071 34.4766 9.27771 34.4766 9.25391C34.4766 7.24886 32.8489 5.66016 30.8828 5.66016C29.9231 5.66016 29.0204 6.034 28.341 6.71268C27.9899 7.06334 27.4211 7.06298 27.0704 6.71205C26.7197 6.36094 26.72 5.79214 27.071 5.44148C27.8907 4.62273 28.9274 4.10056 30.0509 3.92752C29.2585 2.75137 27.941 1.79688 26.3906 1.79688C23.9975 1.79688 21.8984 4.02195 21.8984 6.55859V13.6006ZM6.625 29.5586C5.20996 29.5586 3.86958 29.0282 2.792 28.1454C2.36326 28.8447 2.13281 29.6421 2.13281 30.457C2.13281 31.7751 2.72973 33.0278 3.77039 33.8938C4.03345 34.1127 4.14927 34.4619 4.06921 34.7945C3.97398 35.1901 3.92969 35.5248 3.92969 35.8476C3.92969 38.6363 6.45205 40.8901 8.72617 40.5793C8.78934 40.5707 8.85258 40.5621 8.91611 40.5549C9.30127 40.5114 9.66972 40.7185 9.83242 41.0694C10.7159 42.9731 12.631 44.2031 14.7109 44.2031C17.6329 44.2031 20.1016 41.611 20.1016 38.543C20.1016 35.5706 17.6833 33.1523 14.7109 33.1523C14.2148 33.1523 13.8125 32.7501 13.8125 32.2539C13.8125 31.7577 14.2148 31.3555 14.7109 31.3555C16.8561 31.3555 18.7835 32.3013 20.1016 33.7964V16.7109C20.1016 15.7201 19.2955 14.9141 18.3047 14.9141C17.8086 14.9141 17.4062 14.5118 17.4062 14.0156C17.4062 13.5194 17.8086 13.1172 18.3047 13.1172C18.959 13.1172 19.5726 13.2938 20.1016 13.6006V6.55859C20.1016 4.02195 18.0025 1.79688 15.6094 1.79688C14.059 1.79688 12.7416 2.75137 11.9492 3.92743C13.0726 4.10047 14.1093 4.62264 14.929 5.44139C15.2801 5.79205 15.2805 6.36085 14.9298 6.71196C14.5791 7.06307 14.0102 7.06334 13.6592 6.71268C12.9796 6.034 12.0769 5.66016 11.1172 5.66016C9.14125 5.66016 7.52344 7.25821 7.52344 9.25391C7.52344 9.27763 7.52523 9.30071 7.52568 9.32434C7.8219 9.27825 8.12108 9.25391 8.42188 9.25391C11.8309 9.25391 14.7109 12.2574 14.7109 15.8125C14.7109 16.3087 14.3086 16.7109 13.8125 16.7109C13.3164 16.7109 12.9141 16.3087 12.9141 15.8125C12.9141 13.2759 10.815 11.0508 8.42188 11.0508C5.90787 11.0508 3.92969 13.3864 3.92969 15.8125C3.92969 16.5675 4.13219 17.3074 4.53155 18.0117C4.76784 18.4285 4.6355 18.9574 4.23075 19.2138C2.91706 20.046 2.13281 21.4614 2.13281 23C2.13281 25.5454 4.19392 27.7617 6.625 27.7617C7.12112 27.7617 7.52344 28.1639 7.52344 28.6602C7.52344 29.1564 7.12112 29.5586 6.625 29.5586Z" fill="#5E20B3"/>
<path d="M23.9242 19.2313C24.255 18.8615 24.8229 18.8299 25.1927 19.1607C28.0739 21.7379 32.6797 19.6782 32.6797 15.8125C32.6797 15.3163 33.0819 14.9141 33.5781 14.9141C34.0743 14.9141 34.4766 15.3163 34.4766 15.8125C34.4766 18.9314 32.1939 21.5261 29.2117 22.0168C29.5576 23.1065 30.5786 23.8984 31.7813 23.8984C32.2775 23.8984 32.6797 24.3007 32.6797 24.7969C32.6797 25.2931 32.2775 25.6953 31.7813 25.6953C29.5929 25.6953 27.7661 24.1221 27.3697 22.0475C26.1203 21.8841 24.9443 21.3494 23.9948 20.4999C23.625 20.1691 23.5933 19.6011 23.9242 19.2313Z" fill="#5E20B3"/>
<path d="M33.5781 34.9492C34.0743 34.9492 34.4766 35.3514 34.4766 35.8477C34.4766 36.3439 34.0743 36.7461 33.5781 36.7461C31.185 36.7461 29.0859 38.9713 29.0859 41.5078C29.0859 42.004 28.6837 42.4062 28.1875 42.4062C27.6913 42.4062 27.2891 42.004 27.2891 41.5078C27.2891 37.9527 30.1691 34.9492 33.5781 34.9492Z" fill="#5E20B3"/>
<path d="M26.3912 27.7617C29.4357 27.7617 32.0496 29.4315 33.426 31.8593C33.6706 32.291 33.5191 32.8393 33.0875 33.084C32.6558 33.3286 32.1075 33.1771 31.8628 32.7454C30.7905 30.8537 28.7559 29.5586 26.3912 29.5586C25.895 29.5586 25.4928 29.1564 25.4928 28.6602C25.4928 28.1639 25.895 27.7617 26.3912 27.7617Z" fill="#5E20B3"/>
<path d="M10.2187 23.8984C11.4214 23.8984 12.4424 23.1065 12.7883 22.0168C9.80609 21.5261 7.52343 18.9314 7.52343 15.8125C7.52343 15.3163 7.92575 14.9141 8.42186 14.9141C8.91798 14.9141 9.3203 15.3163 9.3203 15.8125C9.3203 18.2895 11.3355 20.3047 13.8125 20.3047C14.919 20.3047 15.9825 19.8984 16.8072 19.1607C17.177 18.8299 17.745 18.8614 18.0758 19.2313C18.4067 19.6011 18.375 20.1691 18.0052 20.4999C17.0557 21.3494 15.8796 21.8841 14.6302 22.0475C14.2339 24.1221 12.4071 25.6953 10.2187 25.6953C9.72262 25.6953 9.3203 25.2931 9.3203 24.7969C9.3203 24.3007 9.72262 23.8984 10.2187 23.8984Z" fill="#5E20B3"/>
<path d="M8.42188 34.9492C11.8309 34.9492 14.7109 37.9527 14.7109 41.5078C14.7109 42.004 14.3086 42.4062 13.8125 42.4062C13.3164 42.4062 12.9141 42.004 12.9141 41.5078C12.9141 38.9713 10.815 36.7461 8.42188 36.7461C7.92576 36.7461 7.52344 36.3439 7.52344 35.8477C7.52344 35.3514 7.92576 34.9492 8.42188 34.9492Z" fill="#5E20B3"/>
<path d="M8.57461 31.8594C9.9476 29.4373 12.5579 27.7617 15.6094 27.7617C16.1055 27.7617 16.5078 28.1639 16.5078 28.6602C16.5078 29.1564 16.1055 29.5586 15.6094 29.5586C13.2464 29.5586 11.2103 30.8533 10.138 32.7454C9.89298 33.1777 9.3443 33.3284 8.91332 33.0841C8.48162 32.8394 8.33005 32.2911 8.57461 31.8594Z" fill="#5E20B3"/>
</svg>
