<svg width="42" height="42" viewBox="0 0 42 42" fill="none" xmlns="http://www.w3.org/2000/svg">
<path d="M37.1874 42.0001H4.81261C2.15781 42.0001 0 39.8423 0 37.1875V8.31253C0 5.65773 2.15781 3.50024 4.81261 3.50024H37.1874C39.8422 3.50024 42 5.65773 42 8.31253V37.1875C42 39.8423 39.8422 42.0001 37.1874 42.0001ZM4.81261 6.12524C3.60681 6.12524 2.625 7.10674 2.625 8.31253V37.1875C2.625 38.3933 3.60681 39.3751 4.81261 39.3751H37.1874C38.3932 39.3751 39.375 38.3933 39.375 37.1875V8.31253C39.375 7.10674 38.3932 6.12524 37.1874 6.12524H4.81261Z" fill="#682EB7"/>
<path d="M40.6875 16.6252H1.3125C0.587997 16.6252 0 16.0372 0 15.3127C0 14.5882 0.587997 14.0002 1.3125 14.0002H40.6875C41.412 14.0002 42 14.5882 42 15.3127C42 16.0372 41.412 16.6252 40.6875 16.6252Z" fill="#682EB7"/>
<path d="M10.0625 10.5C9.338 10.5 8.75 9.912 8.75 9.1875V1.3125C8.75 0.587997 9.338 0 10.0625 0C10.787 0 11.375 0.587997 11.375 1.3125V9.1875C11.375 9.912 10.787 10.5 10.0625 10.5Z" fill="#682EB7"/>
<path d="M31.9375 10.5C31.213 10.5 30.625 9.912 30.625 9.1875V1.3125C30.625 0.587997 31.213 0 31.9375 0C32.662 0 33.25 0.587997 33.25 1.3125V9.1875C33.25 9.912 32.662 10.5 31.9375 10.5Z" fill="#682EB7"/>
</svg>
