<svg width="44" height="44" viewBox="0 0 44 44" fill="none" xmlns="http://www.w3.org/2000/svg">
<path d="M41.6526 9.80993H35.5491C36.5456 8.72969 37.1557 7.28783 37.1557 5.7058C37.1557 5.7058 37.1545 5.46432 37.1521 5.39539C37.0862 3.44306 36.0215 1.70196 34.3043 0.737571C32.5522 -0.246072 30.4651 -0.245814 28.7211 0.738516L25.9454 2.30507C24.2069 3.28622 22.8464 4.76504 22 6.5039C21.1536 4.76504 19.7932 3.28622 18.0548 2.30516L15.279 0.73843C13.5351 -0.245814 11.4479 -0.246158 9.69592 0.737485C7.97862 1.70179 6.91394 3.44298 6.84803 5.39531C6.84571 5.46423 6.84451 5.70571 6.84451 5.70571C6.84451 7.28774 7.45458 8.7296 8.45102 9.80993H2.34747C1.05308 9.80993 0 10.8631 0 12.1575V17.7292C0 19.0236 1.05308 20.0766 2.34747 20.0766H3.42221V41.1959C3.42221 42.4903 4.47529 43.5434 5.76968 43.5434H38.2303C39.5247 43.5434 40.5778 42.4903 40.5778 41.1959V20.0766H41.6525C42.9469 20.0766 44 19.0235 44 17.7291V12.1574C44.0001 10.8631 42.947 9.80993 41.6526 9.80993ZM26.9065 4.0081L29.6823 2.44154C30.826 1.79598 32.1959 1.7965 33.3468 2.44275C34.4632 3.06949 35.155 4.19794 35.1977 5.46148C35.1992 5.5084 35.2 5.7058 35.2 5.7058C35.2 7.96888 33.3589 9.81001 31.0958 9.81001H23.0337C23.3268 7.39104 24.7548 5.2224 26.9065 4.0081ZM8.80234 5.46139C8.84505 4.19794 9.53693 3.06949 10.6532 2.44266C11.2291 2.11928 11.8596 1.95771 12.4893 1.95771C13.1181 1.95771 13.7462 2.11893 14.3176 2.44154L17.0934 4.0081C19.2451 5.2224 20.6731 7.39104 20.9661 9.80984H12.9041C10.6411 9.80984 8.79993 7.96871 8.79993 5.70571C8.79993 5.70571 8.80079 5.50832 8.80234 5.46139ZM17.6001 23.0511H13.5746C13.0346 23.0511 12.5968 23.489 12.5968 24.0289C12.5968 24.5689 13.0346 25.0067 13.5746 25.0067H17.6001V41.5878H5.76968C5.55355 41.5878 5.37781 41.412 5.37781 41.196V20.0766H17.6001V23.0511ZM17.6001 18.1211H2.34747C2.13134 18.121 1.9556 17.9453 1.9556 17.7293V12.1576C1.9556 11.9414 2.13143 11.7656 2.34747 11.7656H17.6001V18.1211ZM24.4443 41.5877H19.5557V11.7654H24.4443V41.5877ZM38.6223 41.1959C38.6223 41.412 38.4465 41.5878 38.2304 41.5878H26.3999V25.0066H30.1257C30.6657 25.0066 31.1035 24.5688 31.1035 24.0288C31.1035 23.4889 30.6657 23.051 30.1257 23.051H26.3999V20.0766H38.6224L38.6223 41.1959ZM42.0445 17.7293C42.0445 17.9453 41.8687 18.1211 41.6526 18.1211H26.3999V11.7655H41.6527C41.8687 11.7655 42.0446 11.9414 42.0446 12.1575L42.0445 17.7293Z" fill="#682EB7"/>
</svg>
