<svg width="20" height="20" viewBox="0 0 20 20" fill="none" xmlns="http://www.w3.org/2000/svg">
<path d="M16.5991 7.29464C16.4821 7.02448 16.3651 6.75431 16.0949 6.87131L11.917 6.11398L9.89182 2.17852C9.77483 1.90836 9.38766 1.75519 9.38766 1.75519C9.1175 1.87219 8.84734 1.98919 8.57717 2.10618L6.65835 5.82464L2.52507 6.65213C2.2549 6.76912 1.98474 6.88612 1.83157 7.27328C1.67841 7.66044 1.79541 7.93061 2.18257 8.08378L5.05436 11.0109L4.29756 15.1886C4.14439 15.5758 4.26139 15.846 4.64856 15.9991C4.76555 16.2693 5.03572 16.1523 5.30588 16.0353L9.24134 14.0102L12.9598 15.929C13.0768 16.1991 13.347 16.0821 13.6171 15.9651C13.6171 15.9651 13.6171 15.9651 13.8873 15.8481C14.1574 15.7311 14.3106 15.344 14.1936 15.0738L13.6363 10.8235L16.8336 7.83474C16.8331 7.83497 16.7161 7.56481 16.5991 7.29464Z" fill="#F0F0F0"/>
</svg>
