<svg width="307" height="207" viewBox="0 0 307 207" fill="none" xmlns="http://www.w3.org/2000/svg">
<path d="M0.000642538 1.05069C0.0784988 4.12155 0.311973 7.3287 0.707783 10.6384L4.67948 10.1634C4.29774 6.97134 4.07389 3.88898 3.99936 0.94931L0.000642538 1.05069ZM4.49858 29.4398C6.16996 35.3711 8.32586 41.4283 11.0018 47.4582L14.6579 45.8356C12.0613 39.9845 9.96961 34.1073 8.34864 28.3549L4.49858 29.4398ZM20.0182 64.3619C23.3695 69.6654 27.1787 74.8295 31.4731 79.7383L34.4837 77.1045C30.3328 72.3598 26.6463 67.3631 23.3997 62.2252L20.0182 64.3619ZM45.2503 93.1022C50.0871 97.0692 55.3558 100.723 61.0764 103.974L63.0527 100.497C57.535 97.3611 52.4532 93.8366 47.7869 90.0094L45.2503 93.1022ZM78.4934 112.022C84.2833 114.138 90.4322 115.875 96.953 117.173L97.7339 113.25C91.4117 111.991 85.4607 110.31 79.8663 108.265L78.4934 112.022ZM115.949 119.597C119.07 119.787 122.262 119.884 125.527 119.884V115.884C122.341 115.884 119.23 115.789 116.192 115.605L115.949 119.597ZM125.527 119.884C128.704 119.884 131.848 119.895 134.959 119.919L134.989 115.919C131.868 115.895 128.713 115.884 125.527 115.884V119.884ZM153.807 120.233C160.247 120.406 166.52 120.649 172.618 120.975L172.832 116.981C166.694 116.653 160.385 116.408 153.914 116.234L153.807 120.233ZM191.377 122.305C197.845 122.889 204.075 123.597 210.056 124.445L210.618 120.485C204.561 119.626 198.263 118.911 191.737 118.322L191.377 122.305ZM228.493 127.701C234.881 129.082 240.901 130.685 246.535 132.537L247.784 128.737C241.999 126.835 235.842 125.198 229.339 123.791L228.493 127.701ZM263.694 139.586C269.431 142.517 274.572 145.849 279.094 149.629L281.66 146.56C276.879 142.564 271.482 139.073 265.514 136.024L263.694 139.586ZM291.328 163.16C294.614 168.078 297.238 173.547 299.16 179.635L302.974 178.43C300.943 171.997 298.158 166.182 294.654 160.938L291.328 163.16ZM302.618 197.7C302.871 200.683 303 203.781 303 207H307C307 203.675 306.867 200.463 306.603 197.361L302.618 197.7Z" fill="#E2DED2"/>
</svg>
