<svg width="365" height="203" viewBox="0 0 365 203" fill="none" xmlns="http://www.w3.org/2000/svg">
<path d="M364.999 1.06158C364.896 4.40979 364.565 7.92044 363.995 11.5484L360.044 10.9281C360.589 7.45489 360.903 4.11047 361.001 0.93842L364.999 1.06158ZM358.607 31.8421C356.28 38.0937 353.288 44.4548 349.583 50.7437L346.136 48.7131C349.721 42.6287 352.612 36.4802 354.859 30.4463L358.607 31.8421ZM337.467 67.8192C333.116 72.9743 328.203 77.9527 322.698 82.6383L320.105 79.5922C325.44 75.0519 330.198 70.2301 334.411 65.2392L337.467 67.8192ZM305.737 94.8797C300.003 98.3691 293.806 101.558 287.127 104.373L285.574 100.687C292.072 97.9483 298.093 94.8492 303.658 91.4626L305.737 94.8797ZM267.383 111.153C260.945 112.901 254.149 114.331 246.983 115.396L246.395 111.44C253.41 110.397 260.052 108.999 266.334 107.292L267.383 111.153ZM226.237 117.38C222.839 117.535 219.37 117.614 215.828 117.614V113.614C219.31 113.614 222.718 113.537 226.055 113.384L226.237 117.38ZM215.828 117.614C212.225 117.614 208.658 117.624 205.126 117.645L205.103 113.645C208.643 113.624 212.218 113.614 215.828 113.614V117.614ZM183.742 117.922C176.443 118.073 169.322 118.286 162.385 118.571L162.222 114.574C169.188 114.288 176.337 114.075 183.659 113.923L183.742 117.922ZM141.071 119.722C133.743 120.224 126.661 120.83 119.837 121.556L119.414 117.578C126.295 116.847 133.427 116.237 140.798 115.732L141.071 119.722ZM98.72 124.328C91.3857 125.499 84.4271 126.854 77.8619 128.418L76.9352 124.527C83.612 122.937 90.6707 121.562 98.0896 120.378L98.72 124.328ZM57.5549 134.398C50.5252 136.941 44.1439 139.837 38.4387 143.128L36.4401 139.663C42.3813 136.236 48.9819 133.245 56.1944 130.636L57.5549 134.398ZM21.8817 155.693C16.9669 160.681 13.0271 166.291 10.1098 172.604L6.4787 170.926C9.59787 164.176 13.8082 158.187 19.0327 152.886L21.8817 155.693ZM4.60983 192.527C4.20554 195.863 4 199.352 4 203H0C0 199.202 0.213989 195.552 0.638885 192.046L4.60983 192.527Z" fill="url(#paint0_linear)"/>
<defs>
<linearGradient id="paint0_linear" x1="347" y1="11" x2="11" y2="188.5" gradientUnits="userSpaceOnUse">
<stop stop-color="#EFEEF8"/>
<stop offset="1" stop-color="#E2DED2"/>
</linearGradient>
</defs>
</svg>
