<svg width="35" height="50" viewBox="0 0 35 50" fill="none" xmlns="http://www.w3.org/2000/svg">
<path d="M33.4196 24.4547C33.3964 24.3572 33.3587 24.2655 33.3086 24.1818C32.9016 23.2069 32.4055 22.2672 31.8228 21.3782L31.2854 20.5583C31.2576 20.516 31.2264 20.4775 31.1936 20.441C31.3546 20.0891 31.4451 19.6985 31.4451 19.287C31.4451 16.9984 29.5833 15.1366 27.2948 15.1366H24.9967C25.551 14.3672 25.8788 13.4242 25.8788 12.4057C25.8788 11.0113 25.2838 9.67718 24.2464 8.74535L14.8126 0.271568C14.4113 -0.0887812 13.794 -0.0558712 13.4335 0.345494C13.0732 0.746663 13.1062 1.36414 13.5074 1.72459L22.9412 10.1983C23.5668 10.7602 23.9255 11.5648 23.9255 12.4057C23.9255 13.9114 22.7005 15.1365 21.1947 15.1365H21.0935C21.0387 15.1365 20.9842 15.1411 20.9302 15.1503L11.1963 16.8016C11.1882 16.803 11.1714 16.8058 11.152 16.7895C11.1326 16.7732 11.1326 16.7561 11.1326 16.7479V6.24985C11.1326 5.7105 10.6954 5.2733 10.1561 5.2733C9.61674 5.2733 9.17953 5.7105 9.17953 6.24985V16.7478C9.17953 17.3402 9.43911 17.8993 9.89164 18.2815C10.3442 18.6638 10.9389 18.826 11.5229 18.7271L21.1759 17.0896H27.2948C28.5064 17.0896 29.492 18.0753 29.492 19.2869C29.492 19.7446 29.1197 20.117 28.6619 20.117H21.2889C21.1616 20.117 21.0354 20.1419 20.9176 20.1903L10.4337 24.5004C8.89985 25.1311 7.14898 25.1108 5.63004 24.4448C3.39637 23.4654 1.95311 21.2566 1.95311 18.8177V4.00377C1.95311 3.46442 1.51591 3.02722 0.976557 3.02722C0.437204 3.02722 0 3.46442 0 4.00377V18.8177C0 21.7709 1.60644 24.4669 4.15037 25.8866V29.627C4.15037 30.4044 4.02595 31.1727 3.78064 31.9103C1.99677 37.2746 1.84804 42.9904 3.35027 48.44L3.5825 49.2826C3.70193 49.7157 4.0949 49.9999 4.52341 49.9999C4.60935 49.9999 4.69665 49.9885 4.78357 49.9645C5.30348 49.8212 5.60876 49.2835 5.4655 48.7636L5.23327 47.921C3.83416 42.8457 3.97273 37.5225 5.63405 32.5267C5.94557 31.5899 6.10358 30.6144 6.10358 29.6271V26.6627C6.7567 26.8276 7.4275 26.9115 8.09858 26.9115C9.14682 26.9115 10.1953 26.7102 11.1765 26.3069L21.4818 22.0701H28.6618C29.0615 22.0701 29.4413 21.9847 29.7852 21.8325L30.1892 22.4489C30.6998 23.228 31.1314 24.0381 31.4861 24.8692C31.3895 26.1811 30.2919 27.2192 28.9558 27.2192C26.8143 27.2192 25.0193 28.7261 24.5725 30.7349C24.5112 30.7347 24.4499 30.7361 24.3883 30.741C23.8146 30.7866 22.9606 31.0758 22.1506 32.1944C22.0236 32.3698 21.7754 32.4499 21.4752 32.4684C22.1882 31.6711 22.6226 30.6197 22.6226 29.4684C22.6226 26.9835 20.601 24.9619 18.1161 24.9619C15.6313 24.9619 13.6097 26.9835 13.6097 29.4684C13.6097 30.2627 13.817 31.0092 14.1793 31.6579C14.168 31.6943 14.158 31.7315 14.1509 31.77C14.1401 31.8283 13.889 33.2165 14.2318 34.8717C14.6998 37.1322 16.0332 38.8264 18.0877 39.771C19.5745 40.4546 20.8791 40.7377 21.9991 40.7376C24.243 40.7375 25.7445 39.6004 26.4762 38.2687C26.5412 38.3532 26.5985 38.4464 26.6208 38.5091C26.8063 39.1747 27.4935 39.5541 28.3346 39.4539C29.3916 39.3276 30.5498 38.4711 30.595 36.8891C30.6319 35.5993 29.8403 34.1466 28.6251 33.2742C28.0416 32.8554 27.4236 32.6188 26.8118 32.5687C26.7366 32.2057 26.5943 31.8907 26.4192 31.6506C26.4511 30.2786 27.5763 29.1722 28.9558 29.1722C30.3166 29.1722 31.5372 28.5629 32.3615 27.6038C33.4236 32.4505 32.0839 37.6298 28.4949 41.4182C27.2486 42.7336 26.5622 44.456 26.5622 46.268V49.023C26.5622 49.5624 26.9995 49.9996 27.5388 49.9996C28.0782 49.9996 28.5154 49.5624 28.5154 49.023V46.2681C28.5154 44.9579 29.0116 43.7126 29.9126 42.7615C32.5808 39.9452 34.2402 36.266 34.5854 32.4018C34.8272 29.695 34.4174 26.9636 33.4196 24.4547ZM18.1162 26.9151C19.5241 26.9151 20.6696 28.0605 20.6696 29.4685C20.6696 30.8764 19.5242 32.0218 18.1162 32.0218C16.7083 32.0218 15.5629 30.8764 15.5629 29.4685C15.5629 28.0605 16.7083 26.9151 18.1162 26.9151ZM26.537 34.5146C26.9207 34.5055 27.2813 34.7138 27.4862 34.8609C28.1527 35.3394 28.6608 36.2058 28.6428 36.8335C28.6361 37.0699 28.5672 37.2429 28.4322 37.3626C28.3819 37.4072 28.3281 37.4398 28.2771 37.4632C27.9661 36.908 27.3788 36.2423 26.5634 36.1558C26.2238 36.12 25.3715 36.1565 24.7946 37.2718C24.101 38.6127 22.1893 39.5071 18.9036 37.9964C16.5892 36.9323 16.0764 34.8301 16.0079 33.4496C16.6374 33.7843 17.3549 33.9748 18.1162 33.9748C18.3716 33.9748 18.6218 33.9523 18.8657 33.9113C19.3408 34.1071 22.3512 35.2474 23.7326 33.3399C24.0153 32.9495 24.3183 32.7058 24.5432 32.688C24.6735 32.6781 24.781 32.7487 24.8525 32.816C24.8913 32.8827 24.9793 33.1423 24.8475 33.5055C24.5458 34.3368 23.3439 35.0952 21.5503 35.5864C21.0301 35.7289 20.7239 36.266 20.8663 36.7862C20.9851 37.2201 21.3785 37.505 21.8076 37.505C21.893 37.505 21.9798 37.4937 22.0661 37.4702C24.8338 36.7123 26.0354 35.5345 26.537 34.5146Z" fill="#682EB7"/>
</svg>
