<svg width="64" height="54" viewBox="0 0 64 54" fill="none" xmlns="http://www.w3.org/2000/svg">
<circle cx="32" cy="26.5763" r="26.5763" fill="#F9F9F9"/>
<path d="M27.95 22.5173C27.2957 22.6027 26.7126 22.5529 26.2006 22.368C25.7028 22.1831 25.2833 21.9129 24.942 21.5573C24.6148 21.2018 24.3731 20.7822 24.2166 20.2987C24.0744 19.8009 24.0388 19.2889 24.11 18.7627C24.1811 18.2364 24.366 17.7244 24.6646 17.2267C24.9775 16.7147 25.4184 16.2524 25.9873 15.84C26.7126 15.3422 27.5162 14.9653 28.398 14.7093C29.294 14.4533 30.1971 14.304 31.1073 14.2613C32.0175 14.2044 32.8851 14.2542 33.71 14.4107C34.5491 14.5529 35.2744 14.7804 35.886 15.0933C36.9668 15.648 37.7846 16.3733 38.3393 17.2693C38.9082 18.1653 39.2282 19.2178 39.2993 20.4267C39.3704 21.7493 39.15 22.944 38.638 24.0107C38.126 25.0773 37.4433 26.0729 36.59 26.9973C36.4477 27.1538 36.2628 27.3387 36.0353 27.552C35.822 27.7511 35.6015 27.9502 35.374 28.1493C35.1606 28.3342 34.9615 28.5049 34.7766 28.6613C34.606 28.8036 34.4993 28.896 34.4566 28.9387C34.3428 29.024 34.3073 29.0951 34.35 29.152C34.3926 29.2089 34.4495 29.2373 34.5206 29.2373H34.9686C35.5802 29.2089 36.1846 29.1876 36.782 29.1733C37.3935 29.1449 38.0122 29.1093 38.638 29.0667C39.0646 29.4222 39.3846 29.8347 39.598 30.304C39.8113 30.7591 39.9251 31.2356 39.9393 31.7333C39.9677 32.2311 39.9037 32.7289 39.7473 33.2267C39.5908 33.7102 39.3562 34.1511 39.0433 34.5493C38.7446 34.9333 38.3748 35.2604 37.934 35.5307C37.4931 35.7867 36.9953 35.936 36.4406 35.9787C35.8433 36.0213 35.118 36.0569 34.2646 36.0853C33.4113 36.128 32.5011 36.1564 31.534 36.1707C30.5811 36.1991 29.614 36.2133 28.6326 36.2133C27.6513 36.2133 26.7268 36.1991 25.8593 36.1707C25.5037 35.8151 25.1624 35.3813 24.8353 34.8693C24.5082 34.3431 24.2806 33.7813 24.1526 33.184C24.0246 32.5724 24.0317 31.9467 24.174 31.3067C24.3162 30.6524 24.6788 30.0196 25.262 29.408C25.6175 29.0382 26.03 28.6329 26.4993 28.192C26.9828 27.7369 27.4806 27.2604 27.9926 26.7627C28.5188 26.2649 29.038 25.76 29.55 25.248C30.0762 24.7218 30.5526 24.2098 30.9793 23.712C31.2353 23.4133 31.3775 23.1218 31.406 22.8373C31.4486 22.5387 31.4273 22.2756 31.342 22.048C31.2566 21.8204 31.1286 21.6356 30.958 21.4933C30.7873 21.3511 30.6166 21.2729 30.446 21.2587C30.0762 21.2018 29.7348 21.2373 29.422 21.3653C29.1233 21.4791 28.846 21.6427 28.59 21.856C28.5046 21.9556 28.4122 22.0551 28.3126 22.1547C28.2131 22.2542 28.0922 22.3751 27.95 22.5173Z" fill="#A0B1C0"/>
</svg>
