<svg width="342" height="133" viewBox="0 0 342 133" fill="none" xmlns="http://www.w3.org/2000/svg">
<path d="M339.477 131.763C339.331 132.579 338.552 133.122 337.737 132.977L324.446 130.609C323.631 130.464 323.087 129.685 323.233 128.869C323.378 128.053 324.157 127.51 324.972 127.655L336.786 129.76L338.891 117.946C339.036 117.131 339.815 116.587 340.631 116.733C341.447 116.878 341.99 117.657 341.845 118.472L339.477 131.763ZM336.77 132.358C335.824 131.002 334.879 129.66 333.936 128.331L336.382 126.594C337.331 127.93 338.28 129.279 339.23 130.642L336.77 132.358ZM322.363 112.657C320.356 110.052 318.347 107.505 316.333 105.014L318.665 103.128C320.695 105.637 322.719 108.203 324.739 110.826L322.363 112.657ZM303.674 90.2124C301.469 87.7832 299.25 85.4171 297.013 83.1127L299.166 81.0233C301.427 83.3526 303.669 85.7431 305.895 88.1961L303.674 90.2124ZM282.961 69.6717C280.52 67.5136 278.05 65.4202 275.547 63.3897L277.437 61.0599C279.974 63.1177 282.476 65.2386 284.948 67.4241L282.961 69.6717ZM259.931 51.8402C257.247 50.0389 254.519 48.2983 251.743 46.6166L253.297 44.0506C256.113 45.7565 258.88 47.5221 261.603 49.3492L259.931 51.8402ZM234.687 37.3305C231.8 35.9247 228.859 34.5707 225.86 33.2671L227.055 30.5157C230.094 31.8363 233.074 33.2083 236 34.6334L234.687 37.3305ZM207.722 26.2461C204.699 25.2087 201.618 24.2126 198.474 23.2567L199.347 20.3865C202.523 21.3524 205.639 22.3593 208.696 23.4085L207.722 26.2461ZM179.702 18.1987C176.595 17.4607 173.43 16.7546 170.204 16.0795L170.819 13.1431C174.07 13.8236 177.261 14.5355 180.395 15.2798L179.702 18.1987ZM151.013 12.5389C147.847 12.0275 144.626 11.5406 141.348 11.0774L141.768 8.10689C145.064 8.57275 148.305 9.06265 151.491 9.57731L151.013 12.5389ZM122.035 8.68958C118.836 8.34659 115.586 8.02238 112.285 7.71645L112.561 4.72925C115.877 5.03646 119.141 5.36209 122.355 5.70668L122.035 8.68958ZM92.8641 6.16531C89.6467 5.94663 86.3828 5.74252 83.0714 5.55258L83.2432 2.5575C86.5648 2.74803 89.8391 2.95279 93.0675 3.17221L92.8641 6.16531ZM63.5996 4.61769C60.3648 4.49062 57.0873 4.37503 53.7662 4.27058L53.8605 1.27206C57.1891 1.37675 60.4744 1.49262 63.7174 1.62L63.5996 4.61769ZM34.2503 3.79182C31.0467 3.73399 27.8049 3.68503 24.5241 3.6447L24.561 0.64493C27.8473 0.685327 31.0948 0.73437 34.3044 0.792309L34.2503 3.79182ZM4.965 3.50556C3.31931 3.50184 1.66434 3.5 3.05176e-05 3.5V0.5C1.66656 0.5 3.32376 0.501846 4.97177 0.505564L4.965 3.50556Z" fill="#C2D2E4"/>
</svg>
