<svg width="249" height="180" viewBox="0 0 249 180" fill="none" xmlns="http://www.w3.org/2000/svg">
<path d="M81.5355 174.401C82.3091 174.105 82.6962 173.237 82.3999 172.464L77.5723 159.856C77.2761 159.083 76.4087 158.696 75.6351 158.992C74.8615 159.288 74.4744 160.155 74.7707 160.929L79.0619 172.136L67.8554 176.427C67.0817 176.723 66.6947 177.59 66.991 178.364C67.2872 179.138 68.1545 179.525 68.9282 179.228L81.5355 174.401ZM81.6103 171.63C79.9922 170.908 78.4021 170.19 76.8396 169.476L75.5925 172.204C77.1633 172.922 78.7617 173.644 80.3879 174.37L81.6103 171.63ZM59.2862 161.034C56.1295 159.43 53.1195 157.846 50.2521 156.284L48.8168 158.918C51.711 160.495 54.7465 162.092 57.927 163.708L59.2862 161.034ZM33.3823 146.287C30.5203 144.421 27.8754 142.589 25.4391 140.789L23.6565 143.202C26.1444 145.04 28.8379 146.906 31.7441 148.8L33.3823 146.287ZM10.9336 127.874C8.58637 125.206 6.74851 122.634 5.37273 120.156L2.74979 121.612C4.24713 124.309 6.21754 127.055 8.68127 129.855L10.9336 127.874ZM3.19386 102.483C4.14289 99.7477 5.71239 97.0728 7.8668 94.4526L5.54951 92.5473C3.21516 95.3864 1.44643 98.3671 0.359588 101.5L3.19386 102.483ZM22.7037 82.1901C25.3267 80.5614 28.1616 78.9674 31.1865 77.4061L29.8105 74.7403C26.7259 76.3324 23.8209 77.9651 21.1211 79.6415L22.7037 82.1901ZM49.0849 69.3429C52.0784 68.1474 55.1704 66.973 58.3477 65.8183L57.3231 62.9987C54.1194 64.163 50.9979 65.3485 47.9722 66.5569L49.0849 69.3429ZM76.9911 59.5356C80.1045 58.556 83.2662 57.5906 86.4665 56.6384L85.611 53.763C82.3972 54.7192 79.2204 55.6891 76.0907 56.6739L76.9911 59.5356ZM105.457 51.2378C108.63 50.3714 111.819 49.5153 115.018 48.6686L114.25 45.7685C111.045 46.617 107.848 47.4751 104.667 48.3438L105.457 51.2378ZM134.17 43.7127C137.37 42.8995 140.561 42.0939 143.735 41.295L143.003 38.3857C139.828 39.185 136.634 39.9912 133.431 40.8051L134.17 43.7127ZM162.972 36.4546C166.191 35.6403 169.372 34.8312 172.503 34.0262L171.757 31.1206C168.63 31.9244 165.453 32.7325 162.237 33.5462L162.972 36.4546ZM191.754 28.9272C195.018 28.0281 198.193 27.1312 201.263 26.2348L200.422 23.355C197.369 24.2464 194.21 25.1391 190.957 26.0348L191.754 28.9272ZM220.157 20.1976C223.506 19.0012 226.619 17.7969 229.459 16.581L228.278 13.8232C225.507 15.0098 222.453 16.1918 219.148 17.3725L220.157 20.1976ZM246.582 5.41723C247.791 3.74015 248.499 1.92847 248.499 0H245.499C245.499 1.15653 245.082 2.36781 244.149 3.66313L246.582 5.41723Z" fill="#C5CED8"/>
</svg>
