<svg width="43" height="37" viewBox="0 0 43 37" fill="none" xmlns="http://www.w3.org/2000/svg">
<path d="M25.6615 31.2434H22.4031C21.9393 31.2434 21.5633 31.6193 21.5633 32.0832C21.5633 32.547 21.9393 32.9229 22.4031 32.9229H25.6615C26.1644 32.9229 26.5736 33.332 26.5736 33.8349C26.5736 34.3379 26.1645 34.7469 25.6615 34.7469H16.8899C15.5713 34.7469 14.3314 34.1656 13.4883 33.1519L11.3906 30.6306C10.265 29.2776 8.62693 28.4852 6.87416 28.435V23.4744H9.9661C11.491 23.4744 12.9347 24.0575 14.0316 25.1164L18.559 29.4865C18.879 29.7955 18.894 30.3128 18.5923 30.6397C18.2847 30.9728 17.7627 30.9945 17.4285 30.6883L13.8741 27.43C13.5324 27.1166 13.001 27.1397 12.6877 27.4816C12.3743 27.8235 12.3974 28.3546 12.7393 28.668L16.2937 31.9263C16.7731 32.3656 17.3797 32.5827 17.9848 32.5827C18.6604 32.5827 19.334 32.3122 19.8264 31.7787C20.7423 30.7865 20.6971 29.2162 19.7254 28.2782L15.1981 23.9081C13.7864 22.5454 11.9283 21.795 9.9661 21.795H6.71107C6.39512 21.0472 5.65413 20.521 4.79263 20.521H0.839755C0.375996 20.521 0 20.8969 0 21.3607V27.5013C0 27.9651 0.375996 28.3411 0.839755 28.3411C1.30351 28.3411 1.67951 27.9652 1.67951 27.5013V22.2004H4.7927C5.01443 22.2004 5.19474 22.3808 5.19474 22.6024V29.3331C5.19474 29.5548 5.01443 29.7352 4.7927 29.7352H3.92053C3.45678 29.7352 3.08078 30.1111 3.08078 30.5749C3.08078 31.0387 3.45678 31.4147 3.92053 31.4147H4.79263C5.66572 31.4147 6.41444 30.8742 6.72307 30.1103C8.03221 30.1178 9.26169 30.6976 10.0995 31.7047L12.1972 34.2261C13.3605 35.6245 15.0709 36.4264 16.8899 36.4264H25.6615C27.0904 36.4264 28.253 35.2639 28.253 33.8349C28.253 32.406 27.0904 31.2434 25.6615 31.2434Z" fill="white"/>
<path d="M42.1593 7.83001C41.6956 7.83001 41.3196 8.2059 41.3196 8.66975V14.2987H38.2064C37.9847 14.2987 37.8043 14.1184 37.8043 13.8967V7.16601C37.8043 6.94437 37.9847 6.764 38.2064 6.764H39.0169C39.4807 6.764 39.8567 6.3881 39.8567 5.92425C39.8567 5.46048 39.4807 5.08451 39.0169 5.08451H38.2064C37.3333 5.08451 36.5845 5.62497 36.2759 6.38881C34.9668 6.38138 33.7373 5.80159 32.8995 4.79445L30.8018 2.27321C29.6386 0.874794 27.9281 0.0727539 26.109 0.0727539H17.3376C15.9087 0.0727539 14.7461 1.23526 14.7461 2.66416C14.7461 4.09306 15.9087 5.25557 17.3376 5.25557H20.9243C21.3881 5.25557 21.7641 4.87967 21.7641 4.4158C21.7641 3.95196 21.3881 3.57606 20.9243 3.57606H17.3376C16.8346 3.57606 16.4255 3.16697 16.4255 2.66407C16.4255 2.16126 16.8346 1.75209 17.3376 1.75209H26.1091C27.4278 1.75209 28.6676 2.33343 29.5108 3.34711L31.6085 5.86843C32.734 7.22136 34.3721 8.01373 36.1249 8.064V13.0246H33.033C31.5081 13.0246 30.0644 12.4415 28.9675 11.3826L24.44 7.01254C24.12 6.70357 24.105 6.18624 24.4068 5.85928C24.7144 5.52615 25.2364 5.5045 25.5706 5.81081L29.1252 9.06903C29.467 9.38238 29.998 9.35931 30.3116 9.01742C30.6249 8.67554 30.6018 8.14437 30.2599 7.83102L26.7054 4.57289C25.6909 3.6429 24.1062 3.70917 23.1726 4.72034C22.2568 5.71269 22.302 7.28305 23.2736 8.22083L27.801 12.5909C29.2127 13.9536 31.0708 14.7042 33.033 14.7042H36.288C36.604 15.452 37.3449 15.9781 38.2065 15.9781H42.1594C42.6232 15.9781 42.9992 15.6022 42.9992 15.1383V8.6696C42.9991 8.2059 42.6231 7.83001 42.1593 7.83001Z" fill="white"/>
<path d="M27.1143 28.6334C26.9233 28.2108 26.427 28.0223 26.0047 28.2132C25.5794 28.3984 25.3849 28.8932 25.5701 29.3183C25.7076 29.6343 26.0163 29.823 26.3404 29.823C26.4524 29.823 26.566 29.8005 26.6753 29.7529C26.6788 29.7514 26.6899 29.7464 26.6933 29.745C27.116 29.554 27.3052 29.0561 27.1143 28.6334Z" fill="white"/>
<path d="M29.2008 27.2197C28.9264 26.8468 28.3986 26.7692 28.0253 27.0425C27.6512 27.3164 27.5699 27.8419 27.8439 28.2161C28.0083 28.4407 28.2634 28.5598 28.522 28.5598C28.6942 28.5598 28.868 28.5071 29.0174 28.3976C29.0188 28.3967 29.0267 28.3908 29.0279 28.3899C29.3999 28.1144 29.4753 27.5924 29.2008 27.2197Z" fill="white"/>
<path d="M24.7662 29.5765C24.6706 29.1242 24.2265 28.8346 23.7739 28.9282C23.3217 29.018 23.026 29.4559 23.1128 29.9095C23.1897 30.3118 23.5417 30.5917 23.9366 30.5917C23.9889 30.5917 24.042 30.5867 24.0952 30.5765C24.1007 30.5755 24.1144 30.5727 24.12 30.5715C24.5735 30.4753 24.8622 30.0301 24.7662 29.5765Z" fill="white"/>
<path d="M30.9546 25.3934C30.6103 25.0829 30.0794 25.1101 29.7686 25.4545C29.7645 25.4591 29.7549 25.4701 29.7508 25.4747C29.4479 25.8259 29.4869 26.3561 29.8381 26.6591C29.9968 26.796 30.1919 26.863 30.3862 26.863C30.6194 26.863 30.8513 26.7664 31.017 26.5779C31.3263 26.2335 31.2985 25.7035 30.9546 25.3934ZM30.4856 26.1015L30.3922 26.017L30.4933 26.1082L30.4856 26.1015Z" fill="white"/>
<path d="M33.0931 20.8423C32.6493 20.7077 32.1798 20.9608 32.0452 21.4048C31.9088 21.848 32.1575 22.3179 32.6008 22.4543C32.6831 22.4797 32.7662 22.4916 32.848 22.4916C33.207 22.4916 33.5392 22.2597 33.6503 21.8986L33.6538 21.8871C33.7883 21.4433 33.5368 20.9769 33.0931 20.8423Z" fill="white"/>
<path d="M34.1679 16.5085C34.166 16.4979 34.164 16.4871 34.1617 16.4765C34.0669 16.0227 33.6221 15.7323 33.1684 15.827C32.7163 15.9212 32.4257 16.3633 32.5167 16.8153C32.5938 17.2159 32.9449 17.4964 33.3402 17.4964C33.3894 17.4964 33.4393 17.4921 33.4892 17.4832C33.9457 17.4014 34.2496 16.9651 34.1679 16.5085Z" fill="white"/>
<path d="M33.3985 18.3304C32.938 18.2898 32.529 18.6312 32.4883 19.0931C32.4876 19.1012 32.4864 19.1178 32.4858 19.1259C32.4586 19.5889 32.8118 19.9864 33.2749 20.0136C33.2916 20.0146 33.3082 20.0151 33.3249 20.0151C33.7621 20.0151 34.1295 19.677 34.1617 19.2366C34.2 18.7764 33.8592 18.3711 33.3985 18.3304Z" fill="white"/>
<path d="M32.2701 23.2318C31.867 23.0033 31.3542 23.1449 31.1256 23.5484L31.114 23.5695C30.8928 23.9771 31.042 24.4905 31.4496 24.7116C31.5779 24.7811 31.7159 24.8142 31.8518 24.8142C32.1482 24.8142 32.4345 24.657 32.5861 24.3775L31.8561 23.9624L32.5867 24.3764C32.8154 23.9729 32.6737 23.4605 32.2701 23.2318Z" fill="white"/>
<path d="M17.0388 7.23933C16.8315 6.8245 16.3268 6.65625 15.9122 6.86382L15.9048 6.8675C15.4899 7.07491 15.3256 7.57739 15.533 7.99222C15.6799 8.28602 15.9775 8.45521 16.2861 8.45521C16.4132 8.45521 16.5422 8.42651 16.6633 8.366C17.0781 8.15866 17.2462 7.65424 17.0388 7.23933Z" fill="white"/>
<path d="M19.4685 6.53902C19.3593 6.08846 18.9059 5.81146 18.4545 5.92084C18.4507 5.92177 18.4387 5.92482 18.4349 5.92576C17.9857 6.04155 17.7137 6.49985 17.8293 6.94892C17.927 7.32779 18.2669 7.57969 18.6406 7.57969C18.7098 7.57969 18.7801 7.57101 18.8503 7.55295C19.301 7.44373 19.5778 6.98981 19.4685 6.53902Z" fill="white"/>
<path d="M14.82 8.45048C14.5295 8.0896 14.0008 8.03292 13.6395 8.32266L14.1601 8.98149L13.637 8.32461C13.2742 8.61349 13.2143 9.14176 13.5031 9.50453C13.6691 9.71288 13.9137 9.82124 14.1607 9.82124C14.3439 9.82124 14.5287 9.76151 14.6833 9.63845L14.6944 9.62954C15.0546 9.33855 15.1104 8.81137 14.82 8.45048Z" fill="white"/>
<path d="M10.3422 14.4248C9.89471 14.3028 9.43313 14.5665 9.31116 15.014C9.30905 15.0216 9.30499 15.0375 9.30311 15.0452C9.19389 15.4958 9.47073 15.9489 9.92121 16.0583C9.98775 16.0744 10.0542 16.0822 10.1197 16.0822C10.4965 16.0822 10.8388 15.8265 10.9342 15.4455C11.0494 15.0014 10.7862 14.5459 10.3422 14.4248Z" fill="white"/>
<path d="M9.80671 16.8924C9.34255 16.8666 8.94664 17.2193 8.91975 17.6822C8.91912 17.6931 8.91865 17.7038 8.91834 17.7146C8.90473 18.1779 9.26929 18.564 9.73275 18.5778C9.74128 18.5781 9.74972 18.5783 9.75816 18.5783C10.2083 18.5783 10.5803 18.2211 10.5969 17.7689C10.6179 17.3104 10.2662 16.9192 9.80671 16.8924Z" fill="white"/>
<path d="M11.3998 12.1305C10.989 11.915 10.4814 12.0733 10.266 12.4839L10.2524 12.511C10.0477 12.927 10.2194 13.4294 10.6352 13.6342C10.7543 13.6929 10.8806 13.7206 11.0051 13.7206C11.3134 13.7206 11.6104 13.5499 11.7575 13.2561C11.9667 12.8468 11.8077 12.3445 11.3998 12.1305Z" fill="white"/>
<path d="M12.9144 10.1097C12.5576 9.81342 12.0281 9.8626 11.7319 10.2193C11.7279 10.2243 11.7186 10.2357 11.7146 10.2407C11.4267 10.6041 11.4883 11.1313 11.8515 11.4193C12.0057 11.5418 12.1896 11.601 12.3723 11.601C12.6187 11.601 12.8629 11.4932 13.0287 11.2864C13.3197 10.9298 13.2693 10.4043 12.9144 10.1097Z" fill="white"/>
<path d="M10.7563 20.0995C10.6746 19.643 10.238 19.3392 9.78174 19.421C9.32516 19.5028 9.02142 19.9391 9.10312 20.3956L9.10461 20.4039C9.17732 20.8098 9.52984 21.0917 9.92802 21.0917C9.97766 21.0917 10.0279 21.0873 10.0785 21.0783C10.535 20.9966 10.8381 20.5561 10.7563 20.0995Z" fill="white"/>
<path d="M24.3826 13.7246C23.2895 13.7246 22.2768 14.1753 21.5551 14.936C20.8334 14.1753 19.8207 13.7246 18.7277 13.7246C16.5774 13.7246 14.8281 15.4739 14.8281 17.6241C14.8281 18.7844 15.3398 19.8763 16.2319 20.6201C16.2373 20.6247 16.2428 20.6291 16.2484 20.6335L21.0339 24.4222C21.1865 24.5431 21.3708 24.6036 21.555 24.6036C21.7401 24.6036 21.9253 24.5426 22.0783 24.4206L27.0665 20.4474C27.0909 20.428 27.1142 20.4071 27.1363 20.3851C27.8753 19.6482 28.2821 18.6676 28.2821 17.6241C28.2821 15.4739 26.5328 13.7246 24.3826 13.7246ZM25.9806 19.1653L21.5536 22.6916L17.2998 19.324C16.7963 18.9004 16.5076 18.2815 16.5076 17.6243C16.5075 16.4001 17.5035 15.4041 18.7277 15.4041C19.6289 15.4041 20.4342 15.9424 20.7794 16.7753C20.9095 17.089 21.2156 17.2936 21.5551 17.2936C21.8947 17.2936 22.2008 17.0891 22.3309 16.7753C22.6761 15.9424 23.4814 15.4041 24.3826 15.4041C25.6068 15.4041 26.6027 16.4001 26.6027 17.6242C26.6027 18.2039 26.3821 18.7494 25.9806 19.1653Z" fill="white"/>
<path d="M0.840722 31.4119C1.30288 31.4119 1.67754 31.0373 1.67754 30.5751C1.67754 30.1129 1.30288 29.7383 0.840722 29.7383C0.378561 29.7383 0.00390625 30.1129 0.00390625 30.5751C0.00390625 31.0373 0.378561 31.4119 0.840722 31.4119Z" fill="white"/>
<path d="M42.159 6.76103C42.6213 6.76103 42.9959 6.38631 42.9959 5.92418C42.9959 5.46205 42.6213 5.0874 42.159 5.0874C41.6969 5.0874 41.3223 5.46205 41.3223 5.92418C41.3223 6.38631 41.6969 6.76103 42.159 6.76103Z" fill="white"/>
</svg>
