<svg width="44" height="10" viewBox="0 0 44 10" fill="none" xmlns="http://www.w3.org/2000/svg">
<path d="M5.232 9.696C4.992 9.664 4.744 9.632 4.488 9.6C4.248 9.568 4.008 9.528 3.768 9.48C2.824 9.256 2.08 8.848 1.536 8.256C0.992 7.664 0.672 6.888 0.576 5.928C0.544 5.528 0.528 5.128 0.528 4.728C0.528 4.328 0.568 3.928 0.648 3.528C0.776 2.776 1.064 2.16 1.512 1.68C1.976 1.184 2.568 0.824 3.288 0.6C4.36 0.248 5.424 0.192 6.48 0.432C7.024 0.56 7.512 0.768 7.944 1.056C8.392 1.328 8.768 1.672 9.072 2.088C9.376 2.488 9.592 2.944 9.72 3.456C9.864 3.968 9.912 4.512 9.864 5.088C9.832 5.424 9.784 5.76 9.72 6.096C9.672 6.416 9.584 6.728 9.456 7.032C9.12 7.896 8.584 8.552 7.848 9C7.128 9.448 6.256 9.68 5.232 9.696ZM21.8679 9.696C21.6279 9.664 21.3799 9.632 21.1239 9.6C20.8839 9.568 20.6439 9.528 20.4039 9.48C19.4599 9.256 18.7159 8.848 18.1719 8.256C17.6279 7.664 17.3079 6.888 17.2119 5.928C17.1799 5.528 17.1639 5.128 17.1639 4.728C17.1639 4.328 17.2039 3.928 17.2839 3.528C17.4119 2.776 17.6999 2.16 18.1479 1.68C18.6119 1.184 19.2039 0.824 19.9239 0.6C20.9959 0.248 22.0599 0.192 23.1159 0.432C23.6599 0.56 24.1479 0.768 24.5799 1.056C25.0279 1.328 25.4039 1.672 25.7079 2.088C26.0119 2.488 26.2279 2.944 26.3559 3.456C26.4999 3.968 26.5479 4.512 26.4999 5.088C26.4679 5.424 26.4199 5.76 26.3559 6.096C26.3079 6.416 26.2199 6.728 26.0919 7.032C25.7559 7.896 25.2199 8.552 24.4839 9C23.7639 9.448 22.8919 9.68 21.8679 9.696ZM38.5039 9.696C38.2639 9.664 38.0159 9.632 37.7599 9.6C37.5199 9.568 37.2799 9.528 37.0399 9.48C36.0959 9.256 35.3519 8.848 34.8079 8.256C34.2639 7.664 33.9439 6.888 33.8479 5.928C33.8159 5.528 33.7999 5.128 33.7999 4.728C33.7999 4.328 33.8399 3.928 33.9199 3.528C34.0479 2.776 34.3359 2.16 34.7839 1.68C35.2479 1.184 35.8399 0.824 36.5599 0.6C37.6319 0.248 38.6959 0.192 39.7519 0.432C40.2959 0.56 40.7839 0.768 41.2159 1.056C41.6639 1.328 42.0399 1.672 42.3439 2.088C42.6479 2.488 42.8639 2.944 42.9919 3.456C43.1359 3.968 43.1839 4.512 43.1359 5.088C43.1039 5.424 43.0559 5.76 42.9919 6.096C42.9439 6.416 42.8559 6.728 42.7279 7.032C42.3919 7.896 41.8559 8.552 41.1199 9C40.3999 9.448 39.5279 9.68 38.5039 9.696Z" fill="white"/>
</svg>
