<svg width="43" height="43" viewBox="0 0 43 43" fill="none" xmlns="http://www.w3.org/2000/svg">
<path d="M34.9355 27.3777C34.4719 27.3777 34.0957 27.7539 34.0957 28.2174C34.0957 28.681 34.472 29.0572 34.9355 29.0572C35.3991 29.0572 35.7752 28.681 35.7752 28.2174C35.7752 27.7539 35.3991 27.3777 34.9355 27.3777Z" fill="#682EB7"/>
<path d="M24.8593 27.3777C24.3957 27.3777 24.0195 27.7539 24.0195 28.2174C24.0195 28.681 24.3958 29.0572 24.8593 29.0572C25.3228 29.0572 25.6991 28.681 25.6991 28.2174C25.6991 27.7539 25.3229 27.3777 24.8593 27.3777Z" fill="#682EB7"/>
<path d="M23.1796 10.582C22.716 10.582 22.3398 10.9583 22.3398 11.4218C22.3398 11.8854 22.7161 12.2616 23.1796 12.2616C23.6431 12.2616 24.0194 11.8853 24.0194 11.4218C24.0194 10.9583 23.6431 10.582 23.1796 10.582Z" fill="#682EB7"/>
<path d="M14.7812 7.2229C14.3176 7.2229 13.9414 7.59915 13.9414 8.06266C13.9414 8.52625 14.3177 8.90242 14.7812 8.90242C15.2447 8.90242 15.6209 8.52617 15.6209 8.06266C15.6209 7.59915 15.2447 7.2229 14.7812 7.2229Z" fill="#682EB7"/>
<path d="M6.38273 24.0186C5.91913 24.0186 5.54297 24.3948 5.54297 24.8583C5.54297 25.3218 5.91922 25.6981 6.38273 25.6981C6.84632 25.6981 7.22249 25.3218 7.22249 24.8583C7.22249 24.3948 6.84624 24.0186 6.38273 24.0186Z" fill="#682EB7"/>
<path d="M36.849 6.14989C28.6476 -2.05076 14.3496 -2.04917 6.14957 6.14989C-2.04571 14.346 -2.05403 28.6448 6.14965 36.8492C14.3868 45.0857 28.6826 45.0147 36.849 36.8492C45.0956 28.6017 45.0048 14.3065 36.849 6.14989ZM35.6613 35.6616C28.1169 43.2051 14.8814 43.2051 7.33727 35.6616C-0.206202 28.1173 -0.206202 14.8817 7.33719 7.33751C14.8813 -0.205877 28.1171 -0.206129 35.6613 7.33751C43.2048 14.8817 43.2048 28.1173 35.6613 35.6616Z" fill="#682EB7"/>
<path d="M29.4396 7.65735C25.8801 5.6172 21.7126 5.03024 17.704 6.00445C17.2534 6.11405 16.9769 6.56807 17.0865 7.01882C17.196 7.46948 17.6493 7.74578 18.1008 7.63644C21.6895 6.76418 25.4197 7.28899 28.6044 9.11439C29.0081 9.34577 29.5207 9.20451 29.7506 8.8034C29.9811 8.40111 29.8419 7.88797 29.4396 7.65735Z" fill="#682EB7"/>
<path d="M20.6526 11.4268C20.576 10.9694 20.1434 10.6607 19.6857 10.7372C17.4371 11.1136 15.3954 12.1657 13.7811 13.7799C13.4532 14.1079 13.4532 14.6396 13.7811 14.9675C14.1092 15.2955 14.6407 15.2955 14.9688 14.9675C16.3343 13.602 18.0611 12.712 19.963 12.3937C20.4203 12.3172 20.7292 11.8844 20.6526 11.4268Z" fill="#682EB7"/>
<path d="M28.3194 14.6794C27.3349 13.6948 25.7415 13.6947 24.7569 14.6794L24.0537 15.3826C23.2327 16.2023 21.9841 16.4048 20.9474 15.8869C19.7021 15.2638 18.1909 15.7654 17.5663 17.0134C16.9454 18.2563 17.4507 19.7728 18.693 20.3939C21.5963 21.8443 25.1945 21.367 27.6158 18.9457L28.3195 18.2419C29.3039 17.2574 29.3042 15.6639 28.3194 14.6794ZM27.1317 17.0543L26.428 17.758C24.5349 19.6512 21.7202 20.0286 19.4438 18.8914C19.0298 18.6844 18.8616 18.1787 19.0685 17.7644C19.276 17.35 19.7776 17.1797 20.1961 17.389C21.8802 18.2306 23.9073 17.9022 25.2408 16.5708L25.9445 15.8671C26.2727 15.5389 26.8034 15.5389 27.1317 15.8671C27.4599 16.1951 27.4599 16.726 27.1317 17.0543Z" fill="#682EB7"/>
<path d="M15.6206 22.3389C11.9161 22.3389 8.90234 25.3526 8.90234 29.0571C8.90234 32.7616 11.9161 35.7754 15.6206 35.7754C19.3251 35.7754 22.3388 32.7616 22.3388 29.0571C22.3388 25.3526 19.3251 22.3389 15.6206 22.3389ZM15.6206 34.0958C12.8422 34.0958 10.5819 31.8355 10.5819 29.0571C10.5819 26.2787 12.8422 24.0184 15.6206 24.0184C18.399 24.0184 20.6593 26.2787 20.6593 29.0571C20.6593 31.8355 18.399 34.0958 15.6206 34.0958Z" fill="#682EB7"/>
<path d="M16.4608 25.6982C15.0716 25.6982 13.9414 26.8284 13.9414 28.2176C13.9414 29.6068 15.0716 30.737 16.4608 30.737C17.85 30.737 18.9801 29.6068 18.9801 28.2176C18.9801 26.8284 17.85 25.6982 16.4608 25.6982ZM16.4608 29.0574C15.9977 29.0574 15.621 28.6807 15.621 28.2177C15.621 27.7547 15.9978 27.3779 16.4608 27.3779C16.9238 27.3779 17.3005 27.7547 17.3005 28.2177C17.3005 28.6807 16.9238 29.0574 16.4608 29.0574Z" fill="#682EB7"/>
<path d="M8.06233 15.6206C6.67315 15.6206 5.54297 16.7508 5.54297 18.14C5.54297 19.5292 6.67315 20.6593 8.06233 20.6593C9.45152 20.6593 10.5817 19.5292 10.5817 18.14C10.5817 16.7508 9.45152 15.6206 8.06233 15.6206ZM8.06233 18.9797C7.59924 18.9797 7.22257 18.603 7.22257 18.14C7.22257 17.677 7.59933 17.3002 8.06233 17.3002C8.52534 17.3002 8.90209 17.677 8.90209 18.14C8.90209 18.603 8.52534 18.9797 8.06233 18.9797Z" fill="#682EB7"/>
<path d="M34.937 20.6594H29.8983C28.5063 20.6594 27.3789 21.7867 27.3789 23.1788C27.3789 24.568 28.5091 25.6982 29.8983 25.6982H34.937C36.329 25.6982 37.4564 24.5708 37.4564 23.1788C37.4564 21.7896 36.3262 20.6594 34.937 20.6594ZM34.937 24.0185H29.8983C29.4352 24.0185 29.0585 23.6418 29.0585 23.1788C29.0585 22.715 29.4347 22.339 29.8983 22.339H34.937C35.4 22.339 35.7768 22.7158 35.7768 23.1788C35.7768 23.6425 35.4007 24.0185 34.937 24.0185Z" fill="#682EB7"/>
<path d="M31.7807 29.6926C30.7977 28.711 29.1993 28.7112 28.2176 29.693L24.6535 33.257C23.6751 34.2381 23.6648 35.8274 24.6548 36.8199C25.6373 37.801 27.2357 37.8018 28.2178 36.8196L31.7811 33.2564C31.7814 33.2561 31.7816 33.2558 31.782 33.2555C32.7604 32.2744 32.7707 30.6851 31.7807 29.6926ZM30.5933 32.0688L27.0301 35.6319C26.7028 35.9592 26.1697 35.9591 25.8427 35.6327C25.5125 35.3017 25.5145 34.7721 25.8419 34.4438L29.4052 30.8806C29.7319 30.554 30.265 30.5527 30.5926 30.8799C30.9206 31.2088 30.9229 31.7375 30.5933 32.0688Z" fill="#682EB7"/>
<path d="M34.0956 13.9412C33.1695 13.9412 32.416 14.6946 32.416 15.6208C32.416 16.5469 33.1694 17.3004 34.0956 17.3004C35.0218 17.3004 35.7751 16.5469 35.7751 15.6208C35.7751 14.6947 35.0217 13.9412 34.0956 13.9412Z" fill="#682EB7"/>
</svg>
