<svg width="44" height="22" viewBox="0 0 44 22" fill="none" xmlns="http://www.w3.org/2000/svg">
<path d="M43.4959 9.78337C43.4954 9.78286 43.4949 9.78225 43.4943 9.78174L34.5135 0.844244C33.8407 0.174705 32.7525 0.177197 32.0828 0.850087C31.4132 1.52289 31.4157 2.61112 32.0885 3.28074L38.1183 9.28124H1.71875C0.769484 9.28124 0 10.0507 0 11C0 11.9493 0.769484 12.7187 1.71875 12.7187H38.1182L32.0886 18.7192C31.4158 19.3889 31.4132 20.4771 32.0829 21.1499C32.7526 21.8229 33.8409 21.8252 34.5136 21.1557L43.4944 12.2182C43.4949 12.2177 43.4954 12.2171 43.496 12.2166C44.1691 11.5447 44.167 10.453 43.4959 9.78337Z" fill="black"/>
</svg>
