<svg width="52" height="52" viewBox="0 0 52 52" fill="none" xmlns="http://www.w3.org/2000/svg">
<g clip-path="url(#clip0)">
<path d="M49.8335 19.9913C49.8845 17.5076 49.5789 15.0294 48.9261 12.6325C48.0502 9.65329 46.2324 7.03819 43.7451 5.17915C38.8528 1.34588 34.2803 -0.242717 28.9347 0.0285496C26.1148 0.223833 23.313 0.624427 20.5514 1.22715C16.6419 2.01322 13.8018 3.38775 11.8683 5.42962C10.336 7.06128 9.15282 8.9885 8.3912 11.0933C8.06836 12.0207 7.80551 12.9679 7.60426 13.929L7.53493 14.2289C7.35239 14.9039 7.10601 15.5601 6.79913 16.1884C6.62059 16.5888 6.4412 16.9892 6.28606 17.4017C6.08514 17.8595 6.00487 18.361 6.05293 18.8586C6.22926 19.6328 6.67804 20.3178 7.3174 20.7887C7.74293 21.1787 8.022 21.4517 8.0246 21.7013C7.99071 21.8306 7.9397 21.9547 7.87293 22.0705C6.83505 24.2588 5.56285 26.3281 4.07866 28.242C3.4564 29.0021 2.80466 29.8887 2.93726 30.7891C3.12667 31.4725 3.57791 32.0536 4.19306 32.4063C4.47983 32.6038 4.78213 32.7777 5.097 32.9263C5.47053 33.117 6.09713 33.4359 6.137 33.6656C6.19317 33.9574 6.16025 34.2594 6.04253 34.5323C5.9134 34.8027 5.78253 35.0367 5.66553 35.2403C5.34746 35.8028 4.81446 36.7457 5.61613 37.42C5.80333 37.5847 6.124 37.8369 6.41693 38.0613C6.20048 38.442 6.10326 38.8789 6.13786 39.3154C6.1849 39.6547 6.36952 39.9597 6.64833 40.1587C6.84246 40.2965 7.04959 40.4187 7.25499 40.5331C7.7646 40.8234 7.96306 40.9595 8.035 41.2264C8.08176 41.5794 8.04979 41.9385 7.9414 42.2777C7.89113 42.5056 7.8426 42.7327 7.81226 42.9597C7.72444 43.748 7.82392 44.5459 8.1026 45.2885C8.55074 46.9356 10.2107 47.9429 11.8787 47.5799C14.3533 46.9832 16.7939 46.2533 19.1899 45.3933C21.1381 46.5443 22.3697 50.0257 22.6903 51.3317C22.7853 51.7194 23.1328 51.992 23.5319 51.9921L45.2852 51.9323C45.5596 51.9315 45.8174 51.8008 45.9801 51.5799C46.1429 51.359 46.1915 51.0741 46.1111 50.8117C45.8963 50.2203 45.599 49.6621 45.228 49.1538C45.0232 48.8598 44.8379 48.5526 44.6733 48.2343C44.2826 47.4349 43.9552 46.6062 43.694 45.7556C43.1993 44.0815 42.8576 42.366 42.6731 40.6301C42.3659 38.0386 42.7573 35.412 43.8067 33.0225C44.4481 31.6994 45.2375 30.4533 46.1597 29.308C46.6797 28.6034 47.2231 27.8754 47.7101 27.1067C49.0778 24.984 49.8142 22.5164 49.8335 19.9913ZM44.7687 28.2827C43.7674 29.5328 42.9119 30.8931 42.2189 32.337C41.0462 35.0098 40.6093 37.9476 40.9536 40.8459C41.1477 42.6846 41.5091 44.5018 42.0335 46.2747C42.3207 47.2089 42.68 48.1193 43.1081 48.9978C43.3053 49.3855 43.5285 49.7593 43.7763 50.1167L43.8387 50.2111L24.1871 50.2666C23.6098 48.2101 22.5641 46.3152 21.1321 44.7303C21.3531 44.6532 21.5654 44.5813 21.7569 44.5119C22.4139 44.2823 22.9105 44.1081 23.1583 44.0301C26.8737 42.8635 28.7319 41.1753 28.6816 39.0112C28.6535 38.54 28.2662 38.1705 27.7941 38.1645C27.5643 38.1699 27.346 38.2665 27.1873 38.433C27.0287 38.5994 26.9427 38.8221 26.9483 39.0519C26.9691 39.9446 26.2385 41.2463 22.6375 42.3765C22.3775 42.4579 21.8653 42.6365 21.1832 42.8765C20.5653 43.0932 19.8069 43.3584 18.9775 43.6418C16.5362 44.5248 14.049 45.2753 11.5268 45.8899C10.7148 46.0464 9.92444 45.5326 9.738 44.7269C9.55085 44.2404 9.47934 43.717 9.52913 43.1981C9.55253 43.0187 9.59326 42.8393 9.63313 42.659C9.81095 42.0575 9.83892 41.4217 9.71459 40.8069C9.46581 40.0112 8.88217 39.3636 8.11646 39.0337L7.931 38.9271C8.02381 38.7379 8.13498 38.5582 8.26293 38.3907C8.40711 38.2066 8.47076 37.972 8.43942 37.7402C8.40809 37.5085 8.28443 37.2992 8.09653 37.16C7.88853 37.0057 7.3928 36.6348 7.03746 36.3497C7.08166 36.2691 7.13106 36.1763 7.177 36.0992C7.31046 35.8643 7.46213 35.5931 7.61033 35.2837C7.88752 34.6776 7.96901 34.0003 7.84346 33.3458C7.64153 32.2824 6.63013 31.7641 5.88393 31.3863C5.63235 31.267 5.39115 31.127 5.16286 30.9677C4.98322 30.8427 4.81291 30.7048 4.65326 30.5551C4.65326 30.4251 4.79193 30.1079 5.4584 29.2941C7.00691 27.2976 8.33459 25.1391 9.41819 22.8565C9.62686 22.4992 9.7436 22.0957 9.75793 21.6822C9.66958 20.8098 9.20616 20.019 8.48826 19.5155C8.1416 19.1949 7.80706 18.8915 7.7698 18.6246C7.77323 18.4149 7.82047 18.2083 7.90846 18.0179C8.0506 17.6418 8.21613 17.2726 8.38166 16.9034C8.73496 16.1743 9.01679 15.4127 9.2232 14.6293L9.2934 14.3268C9.47847 13.4372 9.72048 12.5603 10.0179 11.7017C10.6973 9.81412 11.7551 8.08529 13.1267 6.62128C14.8054 4.85328 17.3465 3.63995 20.8929 2.92668C23.5709 2.34059 26.2882 1.95071 29.0231 1.76015C33.9267 1.50015 38.1361 2.98562 42.6739 6.54588C44.8789 8.17158 46.4888 10.4766 47.256 13.1065C47.864 15.341 48.1483 17.6511 48.1001 19.9662C48.0849 22.174 47.442 24.3319 46.2463 26.188C45.7922 26.9004 45.2705 27.6033 44.7661 28.2827H44.7687Z" fill="#682EB7"/>
<path d="M20.3676 14.7333H21.2342C21.7129 14.7333 22.1009 14.3453 22.1009 13.8667C22.1009 13.388 21.7129 13 21.2342 13H20.3676C18.9316 13 17.7676 14.1641 17.7676 15.6V16.4667C17.7676 17.9026 18.9316 19.0667 20.3676 19.0667H21.2342C21.7129 19.0667 22.1009 18.6786 22.1009 18.2C22.1009 17.7214 21.7129 17.3333 21.2342 17.3333H20.3676C19.8889 17.3333 19.5009 16.9453 19.5009 16.4667V15.6C19.5009 15.1214 19.8889 14.7333 20.3676 14.7333Z" fill="#682EB7"/>
<path d="M26.4335 12.1333C25.9548 12.1333 25.5668 12.5213 25.5668 13V14.7333C25.5668 15.2119 25.1788 15.6 24.7001 15.6H23.8335C23.3548 15.6 22.9668 15.988 22.9668 16.4666C22.9668 16.9453 23.3548 17.3333 23.8335 17.3333H24.7001C26.1361 17.3333 27.3001 16.1692 27.3001 14.7333V13C27.3001 12.5213 26.9121 12.1333 26.4335 12.1333Z" fill="#682EB7"/>
<path d="M29.9001 12.1332V11.2665C29.9001 9.83056 28.7361 8.6665 27.3001 8.6665H25.5668C24.1309 8.6665 22.9668 9.83056 22.9668 11.2665V12.1332C22.9668 12.6118 23.3548 12.9998 23.8335 12.9998C24.3121 12.9998 24.7001 12.6118 24.7001 12.1332V11.2665C24.7001 10.7879 25.0882 10.3998 25.5668 10.3998H27.3001C27.7788 10.3998 28.1668 10.7879 28.1668 11.2665V12.1332C28.1668 12.6118 28.5548 12.9998 29.0335 12.9998C29.5121 12.9998 29.9001 12.6118 29.9001 12.1332Z" fill="#682EB7"/>
<path d="M32.4999 18.1999H31.6332C31.1546 18.1999 30.7665 17.8118 30.7665 17.3332V16.4665C30.7665 15.9879 30.3785 15.5999 29.8999 15.5999C29.4212 15.5999 29.0332 15.9879 29.0332 16.4665V17.3332C29.0332 18.7691 30.1973 19.9332 31.6332 19.9332H32.4999C32.9785 19.9332 33.3665 19.5452 33.3665 19.0665C33.3665 18.5879 32.9785 18.1999 32.4999 18.1999Z" fill="#682EB7"/>
<path d="M36.8333 15.5999C36.8333 15.1213 36.4453 14.7333 35.9667 14.7333H35.1C34.6214 14.7333 34.2333 14.3452 34.2333 13.8666C34.2333 13.388 34.6214 12.9999 35.1 12.9999H35.9667C36.4453 12.9999 36.8333 12.6119 36.8333 12.1333C36.8333 11.6546 36.4453 11.2666 35.9667 11.2666H35.1C33.6641 11.2666 32.5 12.4307 32.5 13.8666C32.5 15.3025 33.6641 16.4666 35.1 16.4666H35.9667C36.4453 16.4666 36.8333 16.0786 36.8333 15.5999Z" fill="#682EB7"/>
<path d="M39.4335 15.5999C38.9548 15.5999 38.5668 15.9879 38.5668 16.4665V18.1999C38.5668 18.6785 38.1788 19.0665 37.7001 19.0665H36.8335C36.3548 19.0665 35.9668 19.4545 35.9668 19.9332C35.9668 20.4118 36.3548 20.7998 36.8335 20.7998H37.7001C39.1361 20.7998 40.3001 19.6358 40.3001 18.1999V16.4665C40.3001 15.9879 39.9121 15.5999 39.4335 15.5999Z" fill="#682EB7"/>
<path d="M46.3325 18.1999C46.3325 18.186 46.3255 18.1748 46.3247 18.1609C46.247 16.6122 46.0005 15.0766 45.5897 13.5814C44.9198 11.3069 43.5213 9.3155 41.6091 7.91342C37.6892 4.83849 34.135 3.46655 30.0816 3.46655C29.7627 3.46655 29.4403 3.47522 29.1101 3.49082C28.8145 3.50642 28.519 3.54022 28.2235 3.56449C28.2035 3.56449 28.1871 3.55322 28.1671 3.55322C28.1217 3.55824 28.0767 3.56723 28.0328 3.58009C25.7486 3.80041 23.4786 4.14966 21.2338 4.62615C20.2493 4.82005 19.2806 5.08685 18.3357 5.42435C18.3157 5.43215 18.2958 5.43649 18.2767 5.44515C16.8156 5.92578 15.4848 6.73623 14.3871 7.81375C13.3246 8.95487 12.4783 10.2796 11.8894 11.7233C11.8628 11.7722 11.841 11.8236 11.8244 11.8767C11.7663 12.0188 11.6996 12.1532 11.6459 12.2979C11.3798 13.0198 10.9612 14.8173 10.9083 15.0435C10.7133 16.0133 10.2297 19.337 12.1962 21.4222C13.4442 22.7447 15.3526 23.2335 17.859 22.8782L19.0255 22.7118C24.5861 21.9118 27.3767 21.5106 29.7783 23.8592C30.2402 24.3108 30.7134 24.7718 31.2057 25.2199C30.6605 26.9342 29.9533 30.5932 32.8523 32.7599C35.9671 35.0999 35.9671 35.7334 35.9671 37.2666C35.9655 37.5677 36.1203 37.8482 36.3761 38.0072C36.6318 38.1663 36.9518 38.1812 37.2212 38.0466C37.4483 37.9287 39.4338 36.8228 39.4338 32.9332C39.4338 30.8056 41.0198 28.9665 42.5859 27.4446L42.6119 27.4212C43.4611 26.8383 44.1956 26.1038 44.7785 25.2546C45.4073 24.2634 45.857 23.1695 46.1071 22.0228C46.1584 21.911 46.185 21.7895 46.1851 21.6666C46.294 21.0981 46.3549 20.5214 46.3671 19.9428C46.3758 19.3612 46.3628 18.7849 46.3316 18.2155C46.3323 18.2103 46.3326 18.2051 46.3325 18.1999ZM37.7005 32.9332C37.7152 33.654 37.6121 34.3724 37.3954 35.06C36.9907 34.0469 36.0529 32.9974 33.8871 31.3724C32.1651 30.0828 32.2864 27.9386 32.6582 26.4324C34.2819 27.7357 36.2962 28.4563 38.3782 28.4786C38.7158 28.4761 39.0531 28.4564 39.3887 28.4196C38.3474 29.699 37.7543 31.2845 37.7005 32.9332ZM43.3165 24.3307C42.7099 25.2398 41.852 25.9529 40.8473 26.383C39.2567 26.895 37.5418 26.8694 35.9671 26.3102V25.1332C35.9671 24.6546 36.3552 24.2666 36.8338 24.2666H39.4338C39.9125 24.2666 40.3005 23.8785 40.3005 23.3999C40.3005 22.9212 39.9125 22.5332 39.4338 22.5332H36.8338C35.3979 22.5332 34.2338 23.6973 34.2338 25.1332V25.4028C33.0698 24.5758 31.9834 23.6446 30.9881 22.6208C29.9819 21.6008 28.7006 20.8959 27.3005 20.5919V19.9332C27.3005 19.4546 26.9124 19.0666 26.4338 19.0666C25.9552 19.0666 25.5671 19.4546 25.5671 19.9332V20.3804C23.2899 20.385 21.0176 20.5912 18.7768 20.9966L17.6137 21.1622C17.0908 21.2392 16.5618 21.2665 16.0338 21.2436V20.7999C16.0338 20.3212 15.6458 19.9332 15.1671 19.9332C14.6885 19.9332 14.3005 20.3212 14.3005 20.7999V20.8415C13.984 20.6919 13.6971 20.4864 13.4537 20.2348C12.957 19.6602 12.6392 18.9529 12.5394 18.1999H13.4338C14.8697 18.1999 16.0338 17.0358 16.0338 15.5999C16.0338 15.1212 15.6458 14.7332 15.1671 14.7332C14.6885 14.7332 14.3005 15.1212 14.3005 15.5999C14.3005 16.0785 13.9124 16.4666 13.4338 16.4666H12.4623C12.4858 16.1118 12.5319 15.759 12.6001 15.4101C12.7136 14.9178 13.0334 13.5901 13.2353 12.9999H16.0338C16.5124 12.9999 16.9005 12.6119 16.9005 12.1332C16.9005 11.6546 16.5124 11.2666 16.0338 11.2666H14.0249C14.4643 10.4461 15.0082 9.6861 15.6429 9.00542C16.2566 8.39099 16.9762 7.89246 17.7671 7.53382V8.66656C17.7671 10.1025 18.9312 11.2666 20.3671 11.2666C20.8458 11.2666 21.2338 10.8785 21.2338 10.3999C21.2338 9.92124 20.8458 9.53322 20.3671 9.53322C19.8885 9.53322 19.5005 9.1452 19.5005 8.66656V6.85522C20.1839 6.64197 20.8782 6.4655 21.5805 6.32655C22.3189 6.17749 23.0746 6.03449 23.8338 5.89842V6.06655C23.8338 6.5452 24.2218 6.93322 24.7005 6.93322C25.1791 6.93322 25.5671 6.5452 25.5671 6.06655V5.60982C26.1443 5.52315 26.7224 5.44342 27.3005 5.38015V6.06655C27.3005 6.5452 27.6885 6.93322 28.1671 6.93322C28.6458 6.93322 29.0338 6.5452 29.0338 6.06655V5.23629C29.0884 5.23629 29.1439 5.22589 29.1976 5.22242C29.7332 5.19989 30.2541 5.19989 30.7671 5.22155V8.66656C30.7671 9.1452 31.1552 9.53322 31.6338 9.53322H33.3671C33.8458 9.53322 34.2338 9.1452 34.2338 8.66656C34.2338 8.18791 33.8458 7.79989 33.3671 7.79989H32.5005V5.41049C34.0168 5.66747 35.4831 6.16237 36.8451 6.87689C36.8451 6.89682 36.8338 6.91329 36.8338 6.93322V9.53322C36.8338 10.0119 37.2218 10.3999 37.7005 10.3999C38.1791 10.3999 38.5671 10.0119 38.5671 9.53322V7.87789C39.1357 8.24622 39.7111 8.64836 40.3005 9.10162V11.2666C40.3005 11.7452 39.9125 12.1332 39.4338 12.1332C38.9552 12.1332 38.5671 12.5212 38.5671 12.9999C38.5671 13.4785 38.9552 13.8666 39.4338 13.8666C40.8697 13.8666 42.0338 12.7025 42.0338 11.2666V10.6729C42.9146 11.6395 43.5608 12.7961 43.9223 14.0529C44.2161 15.1267 44.4145 16.2245 44.5151 17.3332H42.9005C42.4218 17.3332 42.0338 17.7212 42.0338 18.1999C42.0338 18.6785 42.4218 19.0666 42.9005 19.0666H44.6156C44.6217 19.35 44.6355 19.6316 44.6312 19.9176C44.6269 20.2192 44.5939 20.5096 44.561 20.7999H42.9005C42.4218 20.7999 42.0338 21.1879 42.0338 21.6666C42.0338 22.1452 42.4218 22.5332 42.9005 22.5332H44.1693C43.9566 23.1638 43.6703 23.7671 43.3165 24.3307Z" fill="#682EB7"/>
</g>
<defs>
<clipPath id="clip0">
<rect width="52" height="52" fill="white"/>
</clipPath>
</defs>
</svg>
