<svg width="187" height="264" viewBox="0 0 187 264" fill="none" xmlns="http://www.w3.org/2000/svg">
<path d="M29.0856 0.622059C26.5798 3.25816 24.102 6.28924 21.7409 9.65568L25.0158 11.9525C27.2711 8.73684 29.6245 5.86084 31.9847 3.37794L29.0856 0.622059ZM10.8772 30.1272C8.1973 37.0757 6.19256 44.6431 5.23234 52.6018L9.20354 53.0809C10.1208 45.4784 12.0382 38.233 14.6092 31.5665L10.8772 30.1272ZM5.5889 75.8136C6.73076 83.1442 8.90916 90.5967 12.3562 98.0202L15.9841 96.3356C12.6985 89.2596 10.6269 82.1678 9.54124 75.198L5.5889 75.8136ZM24.7131 117.635C27.0618 120.529 29.6436 123.396 32.4727 126.225L35.3011 123.396C32.5669 120.662 30.0781 117.898 27.8192 115.114L24.7131 117.635ZM32.4727 126.225C34.9217 128.674 37.3196 131.097 39.6625 133.496L42.5242 130.701C40.169 128.29 37.76 125.855 35.3011 123.396L32.4727 126.225ZM53.6779 148.307C58.4614 153.553 62.9163 158.676 67.0008 163.685L70.1009 161.157C65.9612 156.08 61.4566 150.901 56.6336 145.612L53.6779 148.307ZM79.1409 179.91C83.1755 185.9 86.5404 191.71 89.1616 197.361L92.7902 195.678C90.0617 189.796 86.584 183.8 82.4586 177.675L79.1409 179.91ZM95.1403 216.255C96.1606 222.932 95.8685 229.391 94.1157 235.693L97.9694 236.765C99.8868 229.871 100.193 222.838 99.0944 215.651L95.1403 216.255ZM85.1721 253.108C83.2606 255.609 81.0699 258.102 78.5846 260.587L81.413 263.415C84.0125 260.816 86.3221 258.191 88.3503 255.537L85.1721 253.108Z" fill="#E2DED2"/>
</svg>
