<svg width="92" height="87" viewBox="0 0 92 87" fill="none" xmlns="http://www.w3.org/2000/svg">
<path d="M28.9199 58.9391L29.1932 60.9203L28.9199 58.9391ZM13.1796 0.996828C13.1815 0.972133 13.179 1.01264 13.1503 1.16441C13.1247 1.29987 13.0869 1.47944 13.0356 1.70825C12.9329 2.16617 12.7885 2.76683 12.6083 3.50866C12.2505 4.98232 11.7636 6.96449 11.237 9.29109L15.1384 10.1741C15.6566 7.88448 16.1351 5.93597 16.4954 4.45254C16.6743 3.71583 16.827 3.08134 16.9386 2.58352C17.0384 2.13877 17.1411 1.65354 17.168 1.30194L13.1796 0.996828ZM8.19724 26.917C7.5493 33.0503 7.39708 39.4898 8.43921 45.0959L12.3718 44.3649C11.4311 39.3041 11.5451 33.3011 12.1751 27.3372L8.19724 26.917ZM19.5232 60.2502C22.2738 61.1908 25.488 61.4314 29.1932 60.9203L28.6466 56.9578C25.4139 57.4037 22.8511 57.1608 20.8174 56.4654L19.5232 60.2502ZM29.1932 60.9203C31.8407 60.5552 34.3527 60.3571 36.734 60.3043L36.6453 56.3053C34.1045 56.3616 31.4396 56.5726 28.6466 56.9578L29.1932 60.9203ZM51.5255 62.0852C56.8734 63.6178 61.2103 65.9986 64.6592 68.6991L67.1252 65.5497C63.2869 62.5443 58.49 59.9201 52.6274 58.24L51.5255 62.0852ZM73.9696 79.8906C74.72 81.3988 75.2176 82.7601 75.4991 83.8743C75.7917 85.0321 75.8131 85.7747 75.7586 86.1093L79.7064 86.7532C79.8882 85.6385 79.7278 84.2817 79.3773 82.8944C79.0157 81.4634 78.409 79.8335 77.5508 78.1087L73.9696 79.8906Z" fill="#E2DED2"/>
</svg>
