<svg width="539" height="223" viewBox="0 0 539 223" fill="none" xmlns="http://www.w3.org/2000/svg">
<path d="M0.00143754 1.07582C0.138074 4.67758 0.679248 8.31674 1.60673 11.9677L5.48359 10.9828C4.62096 7.58714 4.12387 4.22729 3.99856 0.924183L0.00143754 1.07582ZM10.404 31.8784C14.0147 37.6162 18.5228 43.2843 23.8681 48.7922L26.7386 46.0065C21.5636 40.6741 17.2347 35.2228 13.7895 29.748L10.404 31.8784ZM40.0317 63.0121C45.4739 67.146 51.4275 71.1307 57.8656 74.9194L59.8943 71.472C53.5832 67.758 47.761 63.8601 42.4512 59.8268L40.0317 63.0121ZM76.8436 84.8419C83.1059 87.746 89.708 90.4755 96.6337 93.0008L98.004 89.2428C91.1809 86.755 84.6833 84.0683 78.5264 81.2131L76.8436 84.8419ZM116.998 99.5531C123.674 101.431 130.593 103.126 137.744 104.617L138.561 100.702C131.497 99.2285 124.667 97.5551 118.082 95.7025L116.998 99.5531ZM158.778 108.304C165.671 109.29 172.746 110.091 179.997 110.693L180.328 106.707C173.155 106.112 166.158 105.319 159.345 104.344L158.778 108.304ZM201.32 111.857C204.844 111.952 208.404 112 212 112V108C208.44 108 204.915 107.952 201.427 107.859L201.32 111.857ZM212 112C215.582 112 219.129 112.006 222.64 112.017L222.653 108.017C219.137 108.006 215.586 108 212 108V112ZM243.677 112.16C250.844 112.236 257.855 112.338 264.711 112.469L264.787 108.47C257.919 108.339 250.897 108.236 243.719 108.16L243.677 112.16ZM285.741 112.974C292.928 113.183 299.932 113.429 306.756 113.71L306.921 109.714C300.079 109.431 293.059 109.186 285.857 108.975L285.741 112.974ZM327.736 114.725C334.924 115.127 341.893 115.576 348.648 116.074L348.942 112.085C342.162 111.585 335.169 111.134 327.959 110.731L327.736 114.725ZM369.639 117.848C376.875 118.543 383.834 119.306 390.524 120.139L391.018 116.17C384.288 115.332 377.291 114.565 370.022 113.866L369.639 117.848ZM411.264 123.085C418.495 124.252 425.359 125.521 431.868 126.895L432.694 122.982C426.116 121.593 419.189 120.312 411.902 119.136L411.264 123.085ZM452.214 131.86C459.335 133.863 465.926 136.036 472.013 138.385L473.453 134.654C467.235 132.254 460.523 130.043 453.298 128.01L452.214 131.86ZM490.828 147.079C497.284 150.662 502.931 154.552 507.828 158.765L510.437 155.733C505.31 151.322 499.434 147.28 492.769 143.581L490.828 147.079ZM521.443 174.007C525.223 179.664 528.129 185.792 530.229 192.429L534.043 191.222C531.834 184.243 528.769 177.771 524.769 171.785L521.443 174.007ZM534.081 212.616C534.362 215.97 534.5 219.43 534.5 223H538.5C538.5 219.327 538.358 215.755 538.067 212.282L534.081 212.616Z" fill="#E2DED2"/>
</svg>
