<svg width="104" height="105" viewBox="0 0 104 105" fill="none" xmlns="http://www.w3.org/2000/svg">
<path d="M98.0922 16.1672L79.3992 6.54907C79.2499 6.43119 79.0798 6.34244 78.8977 6.28745L60.5744 1.05498C60.5614 1.05498 60.5474 1.05498 60.5343 1.04887C60.411 1.01652 60.2842 0.999529 60.1567 0.998291H42.7151C42.5879 1.00004 42.4613 1.01761 42.3384 1.05062C42.3245 1.05062 42.3105 1.05062 42.2974 1.05672L23.9733 6.2892C23.7912 6.34419 23.6211 6.43294 23.4718 6.55082L4.7797 16.1681C2.67293 17.33 1.10218 19.2676 0.401134 21.5691C-0.29991 23.8707 -0.0760084 26.3549 1.02528 28.494C2.12656 30.6331 4.01844 32.2585 6.29903 33.025C8.57961 33.7915 11.0692 33.6387 13.2389 32.5989L23.7963 27.1642C25.8273 69.4687 25.8334 69.5184 25.8378 69.5542L28.393 95.4549C28.6484 97.9169 29.8211 100.193 31.6777 101.83C33.5343 103.467 35.939 104.345 38.4136 104.29C40.8882 104.235 43.2515 103.251 45.0337 101.533C46.8158 99.8153 47.8863 97.4898 48.0322 95.0189L49.1825 73.7402C49.2145 73.1644 49.4658 72.6228 49.8848 72.2265C50.3037 71.8303 50.8584 71.6095 51.4351 71.6095C52.0117 71.6095 52.5664 71.8303 52.9854 72.2265C53.4043 72.6228 53.6556 73.1644 53.6876 73.7402L54.8388 95.0259C54.9712 97.5058 56.0357 99.8442 57.8189 101.573C59.6021 103.301 61.9725 104.292 64.4554 104.347C66.9383 104.403 69.3503 103.518 71.2085 101.87C73.0667 100.222 74.2339 97.9335 74.4763 95.4619L77.0297 69.5873C77.0376 69.5202 77.0437 69.4635 79.0747 27.1624L89.633 32.5989C90.7153 33.1937 91.9059 33.5656 93.1343 33.6926C94.3628 33.8196 95.6042 33.6992 96.7854 33.3384C97.9665 32.9776 99.0633 32.3838 100.011 31.5921C100.959 30.8004 101.739 29.8267 102.304 28.7287C102.869 27.6307 103.209 26.4305 103.302 25.1991C103.396 23.9676 103.242 22.7299 102.849 21.559C102.457 20.388 101.834 19.3076 101.017 18.3816C100.199 17.4555 99.2051 16.7026 98.0922 16.1672ZM44.2413 4.05057H58.6306V4.26859C58.6306 6.17673 57.8726 8.00672 56.5233 9.35598C55.1741 10.7052 53.3441 11.4632 51.4359 11.4632C49.5278 11.4632 47.6978 10.7052 46.3485 9.35598C44.9993 8.00672 44.2413 6.17673 44.2413 4.26859V4.05057ZM44.1916 11.5129C45.6068 12.93 47.4067 13.9008 49.3682 14.3051C51.3297 14.7095 53.3668 14.5296 55.2271 13.7877C57.0874 13.0459 58.6892 11.7746 59.8342 10.1315C60.9792 8.48831 61.6171 6.54538 61.6689 4.54329L63.8177 5.15375C63.6036 8.29217 62.2059 11.2322 59.9071 13.3796C57.6083 15.5269 54.5799 16.7213 51.4342 16.7213C48.2885 16.7213 45.2601 15.5269 42.9613 13.3796C40.6625 11.2322 39.2648 8.29217 39.0507 5.15375L41.1986 4.54329C41.2603 7.1655 42.3326 9.66251 44.1916 11.5129ZM11.8435 29.8859C11.1187 30.2848 10.3212 30.5343 9.49824 30.6197C8.6753 30.7052 7.84357 30.6248 7.05221 30.3834C6.26084 30.142 5.52587 29.7445 4.89073 29.2143C4.25559 28.6841 3.73316 28.0319 3.35429 27.2964C2.97542 26.5609 2.74781 25.7569 2.6849 24.9319C2.62198 24.1069 2.72505 23.2777 2.988 22.4932C3.25095 21.7088 3.66845 20.985 4.21584 20.3646C4.76323 19.7442 5.42941 19.2398 6.17503 18.8811L22.9835 10.2336C23.2207 15.1574 23.437 19.6739 23.6358 23.8145L11.8435 29.8859ZM73.9966 69.2542L71.4397 95.1549C71.2728 96.8609 70.4675 98.4409 69.1851 99.5783C67.9027 100.716 66.2379 101.327 64.5241 101.289C62.8104 101.251 61.1743 100.566 59.9436 99.3732C58.7129 98.18 57.9786 96.5658 57.8876 94.8541L56.7364 73.5561C56.6592 72.2018 56.0665 70.9284 55.0798 69.9974C54.0932 69.0664 52.7876 68.5484 51.431 68.5499C50.0745 68.5513 48.7699 69.0721 47.7853 70.0052C46.8007 70.9383 46.2106 72.213 46.1363 73.5675L44.9825 94.8602C44.8761 96.5618 44.1344 98.1614 42.9045 99.3422C41.6746 100.523 40.0461 101.199 38.3415 101.236C36.6369 101.273 34.9806 100.669 33.7005 99.5424C32.4204 98.4162 31.6099 96.8503 31.4296 95.1549L28.8805 69.3013C28.8404 68.5347 27.5968 42.6514 26.7334 24.6779C26.7334 24.6395 26.7334 24.6011 26.7282 24.5627C26.3794 17.3036 26.0933 11.349 25.9756 8.89148L36.0612 6.01275C36.4878 9.79172 38.2913 13.2812 41.1272 15.815C43.9632 18.3488 47.6329 19.7494 51.4359 19.7494C55.2389 19.7494 58.9087 18.3488 61.7447 15.815C64.5806 13.2812 66.384 9.79172 66.8107 6.01275L76.9006 8.89061C76.7829 11.349 76.4969 17.307 76.148 24.568V24.6665C75.2707 42.7561 74.0167 68.8565 73.9958 69.2542H73.9966ZM99.3741 27.22C98.6194 28.6773 97.3178 29.7761 95.7544 30.2756C94.1911 30.7752 92.4935 30.6347 91.0336 29.885L79.2361 23.8136C79.4349 19.6739 79.6521 15.1574 79.8884 10.2336L96.6968 18.8803C98.1532 19.6359 99.2515 20.9368 99.7521 22.4993C100.253 24.0617 100.115 25.7587 99.3689 27.22H99.3741Z" fill="#E2E2E2"/>
<path d="M69.2909 79.1925C68.8884 79.1533 68.4867 79.2753 68.174 79.5318C67.8613 79.7883 67.663 80.1583 67.6227 80.5608L67.0602 86.2616C67.0404 86.461 67.0601 86.6623 67.1182 86.8541C67.1763 87.0458 67.2716 87.2243 67.3987 87.3792C67.5257 87.5341 67.6821 87.6625 67.8588 87.757C68.0355 87.8515 68.229 87.9102 68.4285 87.9298C68.4799 87.9298 68.5305 87.9368 68.5802 87.9368C68.9587 87.9367 69.3236 87.7957 69.604 87.5413C69.8843 87.287 70.0599 86.9374 70.0967 86.5607L70.6592 80.8608C70.679 80.6614 70.6593 80.46 70.6012 80.2683C70.5431 80.0765 70.4478 79.8981 70.3207 79.7431C70.1937 79.5882 70.0373 79.4598 69.8606 79.3654C69.6839 79.2709 69.4903 79.2121 69.2909 79.1925Z" fill="#E2E2E2"/>
<path d="M60.3762 38.7425L55.1437 37.9821L52.8039 33.2414C52.6781 32.9859 52.4832 32.7708 52.2414 32.6203C51.9995 32.4699 51.7204 32.3901 51.4356 32.3901C51.1508 32.3901 50.8717 32.4699 50.6299 32.6203C50.388 32.7708 50.1932 32.9859 50.0673 33.2414L47.7275 37.9821L42.4951 38.7425C42.2132 38.7833 41.9483 38.9022 41.7305 39.0857C41.5126 39.2692 41.3505 39.51 41.2624 39.7808C41.1742 40.0517 41.1637 40.3418 41.2319 40.6184C41.3001 40.8949 41.4443 41.1468 41.6483 41.3457L45.4348 45.0354L44.5462 50.247C44.4979 50.5277 44.5291 50.8163 44.6364 51.0801C44.7436 51.3439 44.9226 51.5725 45.153 51.7398C45.3835 51.9072 45.6562 52.0067 45.9403 52.0271C46.2243 52.0474 46.5084 51.9879 46.7604 51.8551L51.4356 49.395L56.1152 51.8551C56.3672 51.9875 56.6512 52.0468 56.9351 52.0263C57.219 52.0058 57.4916 51.9062 57.7219 51.739C57.9522 51.5717 58.1312 51.3433 58.2385 51.0797C58.3459 50.816 58.3774 50.5276 58.3294 50.247L57.4364 45.0354L61.2221 41.3457C61.4257 41.1468 61.5696 40.8949 61.6377 40.6185C61.7057 40.3421 61.6952 40.0522 61.6072 39.7815C61.5192 39.5108 61.3574 39.2701 61.1398 39.0865C60.9223 38.9029 60.6578 38.7838 60.3762 38.7425ZM54.7303 43.4099C54.5538 43.583 54.4219 43.7963 54.3459 44.0316C54.27 44.2669 54.2523 44.5171 54.2943 44.7607L54.801 47.7145L52.1481 46.3192C51.9292 46.204 51.6856 46.1439 51.4382 46.1439C51.1909 46.1439 50.9473 46.204 50.7284 46.3192L48.0755 47.7145L48.5822 44.7607C48.6242 44.5171 48.6065 44.2669 48.5306 44.0316C48.4546 43.7963 48.3227 43.583 48.1461 43.4099L45.9999 41.3169L48.965 40.8861C49.21 40.8504 49.4426 40.7557 49.6428 40.6102C49.843 40.4647 50.0049 40.2726 50.1144 40.0506L51.4356 37.3655L52.7621 40.0524C52.8714 40.2744 53.033 40.4664 53.2331 40.6119C53.4332 40.7575 53.6657 40.8522 53.9106 40.8878L56.8756 41.3186L54.7303 43.4099Z" fill="#E2E2E2"/>
</svg>
