<svg width="369" height="139" viewBox="0 0 369 139" fill="none" xmlns="http://www.w3.org/2000/svg">
<path d="M1.50303 137.095C1.55564 137.922 2.26852 138.55 3.09527 138.497L16.568 137.64C17.3948 137.587 18.0223 136.874 17.9697 136.047C17.9171 135.221 17.2042 134.593 16.3775 134.646L4.4017 135.408L3.63954 123.432C3.58692 122.605 2.87405 121.978 2.0473 122.03C1.22054 122.083 0.592979 122.796 0.645596 123.623L1.50303 137.095ZM4.12588 137.991C5.2029 136.768 6.28079 135.555 7.35952 134.354L5.12745 132.35C4.04209 133.558 2.95764 134.778 1.87412 136.009L4.12588 137.991ZM20.5073 120.296C22.7557 117.989 25.0075 115.728 27.2624 113.512L25.1596 111.373C22.8892 113.604 20.6224 115.88 18.3591 118.202L20.5073 120.296ZM41.3027 100.319C43.7008 98.1675 46.102 96.0634 48.5063 94.0062L46.5559 91.7268C44.1336 93.7994 41.7146 95.919 39.299 98.0867L41.3027 100.319ZM63.44 81.8505C65.9897 79.8789 68.5425 77.9569 71.098 76.0835L69.3243 73.664C66.748 75.5527 64.1748 77.49 61.6049 79.4772L63.44 81.8505ZM86.9151 65.1174C89.6087 63.3546 92.3049 61.6423 95.0035 59.9791L93.4294 57.4252C90.7077 59.1027 87.9886 60.8295 85.2723 62.6072L86.9151 65.1174ZM111.659 50.3386C114.491 48.8033 117.325 47.3183 120.16 45.882L118.805 43.2057C115.944 44.6546 113.086 46.1526 110.229 47.7014L111.659 50.3386ZM137.541 37.6832C140.493 36.3909 143.446 35.1474 146.4 33.951L145.274 31.1704C142.294 32.3772 139.315 33.6315 136.338 34.9351L137.541 37.6832ZM164.389 27.2345C167.434 26.1909 170.481 25.1931 173.527 24.2392L172.631 21.3763C169.559 22.338 166.488 23.3441 163.416 24.3965L164.389 27.2345ZM192.021 18.971C195.133 18.1693 198.245 17.4091 201.357 16.6882L200.679 13.7656C197.545 14.4919 194.409 15.2579 191.272 16.0659L192.021 18.971ZM220.186 12.7866C223.348 12.2057 226.509 11.6612 229.668 11.1507L229.19 8.18907C226.01 8.70291 222.828 9.25111 219.644 9.83597L220.186 12.7866ZM248.722 8.46262C251.913 8.07507 255.1 7.71777 258.285 7.38836L257.976 4.40428C254.775 4.73546 251.569 5.09474 248.361 5.48451L248.722 8.46262ZM277.467 5.71938C280.675 5.48991 283.88 5.28416 287.08 5.09967L286.907 2.10464C283.694 2.28988 280.476 2.49652 277.253 2.72702L277.467 5.71938ZM306.329 4.22474C309.545 4.11466 312.756 4.0213 315.961 3.94211L315.887 0.943026C312.673 1.02243 309.453 1.11607 306.227 1.2265L306.329 4.22474ZM335.236 3.61563C338.459 3.58279 341.675 3.55928 344.883 3.54245L344.867 0.542487C341.655 0.559344 338.434 0.58289 335.205 0.615782L335.236 3.61563ZM364.183 3.50034C365.791 3.5 367.397 3.5 369 3.5V0.5C367.397 0.5 365.791 0.5 364.182 0.500344L364.183 3.50034Z" fill="#C3D3E4"/>
</svg>
